<svg width="28" height="28" viewBox="0 0 28 28" fill="none" xmlns="http://www.w3.org/2000/svg">
<rect width="28" height="28" rx="14" fill="#2DC3F5"/>
<path d="M11.3329 20.6667H16.6662C19.3462 20.6667 19.8262 19.5933 19.9662 18.2867L20.4662 12.9533C20.6462 11.3267 20.1796 10 17.3329 10H10.6662C7.81956 10 7.35289 11.3267 7.53289 12.9533L8.03289 18.2867C8.17289 19.5933 8.65289 20.6667 11.3329 20.6667Z" stroke="white" stroke-miterlimit="10" stroke-linecap="round" stroke-linejoin="round"/>
<path d="M11.333 9.99992V9.46659C11.333 8.28659 11.333 7.33325 13.4663 7.33325H14.533C16.6663 7.33325 16.6663 8.28659 16.6663 9.46659V9.99992" stroke="white" stroke-miterlimit="10" stroke-linecap="round" stroke-linejoin="round"/>
<path d="M15.3337 14.6667V15.3333C15.3337 15.34 15.3337 15.34 15.3337 15.3467C15.3337 16.0733 15.327 16.6667 14.0003 16.6667C12.6803 16.6667 12.667 16.08 12.667 15.3533V14.6667C12.667 14 12.667 14 13.3337 14H14.667C15.3337 14 15.3337 14 15.3337 14.6667Z" stroke="white" stroke-miterlimit="10" stroke-linecap="round" stroke-linejoin="round"/>
<path d="M20.433 13.3333C18.893 14.4533 17.133 15.1199 15.333 15.3466" stroke="white" stroke-miterlimit="10" stroke-linecap="round" stroke-linejoin="round"/>
<path d="M7.74707 13.5134C9.24707 14.5401 10.9404 15.1601 12.6671 15.3534" stroke="white" stroke-miterlimit="10" stroke-linecap="round" stroke-linejoin="round"/>
</svg>
