<svg width="36" height="36" viewBox="0 0 36 36" fill="none" xmlns="http://www.w3.org/2000/svg">
<rect width="36" height="36" rx="18" fill="#F8AB11"/>
<path d="M26.3087 23.2751C26.3087 23.5751 26.242 23.8834 26.1003 24.1834C25.9587 24.4834 25.7753 24.7667 25.5337 25.0334C25.1253 25.4834 24.6753 25.8084 24.167 26.0167C23.667 26.2251 23.1253 26.3334 22.542 26.3334C21.692 26.3334 20.7837 26.1334 19.8253 25.7251C18.867 25.3167 17.9087 24.7667 16.9587 24.0751C16.0003 23.3751 15.092 22.6001 14.2253 21.7417C13.367 20.8751 12.592 19.9667 11.9003 19.0167C11.217 18.0667 10.667 17.1167 10.267 16.1751C9.86699 15.2251 9.66699 14.3167 9.66699 13.4501C9.66699 12.8834 9.76699 12.3417 9.96699 11.8417C10.167 11.3334 10.4837 10.8667 10.9253 10.4501C11.4587 9.92508 12.042 9.66675 12.6587 9.66675C12.892 9.66675 13.1253 9.71675 13.3337 9.81675C13.5503 9.91675 13.742 10.0667 13.892 10.2834L15.8253 13.0084C15.9753 13.2167 16.0837 13.4084 16.1587 13.5917C16.2337 13.7667 16.2753 13.9417 16.2753 14.1001C16.2753 14.3001 16.217 14.5001 16.1003 14.6917C15.992 14.8834 15.8337 15.0834 15.6337 15.2834L15.0003 15.9417C14.9087 16.0334 14.867 16.1417 14.867 16.2751C14.867 16.3417 14.8753 16.4001 14.892 16.4667C14.917 16.5334 14.942 16.5834 14.9587 16.6334C15.1087 16.9084 15.367 17.2667 15.7337 17.7001C16.1087 18.1334 16.5087 18.5751 16.942 19.0167C17.392 19.4584 17.8253 19.8667 18.267 20.2417C18.7003 20.6084 19.0587 20.8584 19.342 21.0084C19.3837 21.0251 19.4337 21.0501 19.492 21.0751C19.5587 21.1001 19.6253 21.1084 19.7003 21.1084C19.842 21.1084 19.9503 21.0584 20.042 20.9667L20.6753 20.3417C20.8837 20.1334 21.0837 19.9751 21.2753 19.8751C21.467 19.7584 21.6587 19.7001 21.867 19.7001C22.0253 19.7001 22.192 19.7334 22.3753 19.8084C22.5587 19.8834 22.7503 19.9917 22.9587 20.1334L25.717 22.0917C25.9337 22.2417 26.0837 22.4167 26.1753 22.6251C26.2587 22.8334 26.3087 23.0417 26.3087 23.2751Z" stroke="white" stroke-width="1.5" stroke-miterlimit="10"/>
</svg>
