<svg width="335" height="207" viewBox="0 0 335 207" fill="none" xmlns="http://www.w3.org/2000/svg">
<g filter="url(#filter0_ddddd_145_2608)">
<rect x="116.706" y="44.5157" width="200" height="91.65" rx="17.6816" transform="rotate(-9.70631 116.706 44.5157)" fill="white"/>
<rect x="135.174" y="57.5891" width="59.65" height="59.65" rx="29.825" transform="rotate(-9.70631 135.174 57.5891)" fill="#F9B732"/>
<path d="M174.249 65.0794L159.607 67.5838C155.026 68.3674 151.934 72.7071 152.717 77.2817L154.214 86.0374L154.465 87.5015C155.247 92.0762 159.605 95.1416 164.187 94.3579L166.382 93.9825C166.381 93.9827 166.4 93.9803 166.44 93.9842C166.484 93.9884 166.537 93.9986 166.594 94.016C166.652 94.0334 166.704 94.0551 166.745 94.0773C166.766 94.0881 166.781 94.0979 166.793 94.1057C166.801 94.1113 166.806 94.1152 166.808 94.1169L169.493 96.6462C169.494 96.6466 169.494 96.647 169.494 96.6474C170.283 97.3927 171.282 97.7406 172.271 97.5714C173.261 97.4021 174.088 96.7419 174.583 95.7769C174.584 95.7764 174.584 95.7759 174.584 95.7754L176.279 92.4917C176.279 92.4912 176.28 92.4908 176.28 92.4903C176.353 92.3503 176.491 92.2532 176.632 92.2292L178.828 91.8535C183.41 91.0699 186.502 86.7302 185.719 82.1556L183.971 71.9358C183.189 67.3611 178.83 64.2957 174.249 65.0794ZM171.335 83.2849L162.55 84.7876C162.527 84.7915 162.497 84.7873 162.467 84.7655C162.436 84.7438 162.422 84.7172 162.418 84.6944C162.414 84.6716 162.419 84.6419 162.44 84.6112C162.462 84.5805 162.489 84.5666 162.511 84.5627L171.296 83.0601C171.319 83.0562 171.349 83.0604 171.38 83.0821C171.41 83.1039 171.424 83.1305 171.428 83.1533C171.432 83.1761 171.428 83.2058 171.406 83.2365C171.384 83.2672 171.358 83.281 171.335 83.2849ZM175.939 74.9624L161.298 77.4668C161.275 77.4707 161.245 77.4665 161.214 77.4448C161.184 77.423 161.17 77.3964 161.166 77.3736C161.162 77.3508 161.166 77.3211 161.188 77.2904C161.21 77.2597 161.236 77.2459 161.259 77.242L175.901 74.7376C175.924 74.7337 175.953 74.7379 175.984 74.7596C176.015 74.7813 176.029 74.808 176.032 74.8308C176.036 74.8536 176.032 74.8833 176.01 74.914C175.989 74.9447 175.962 74.9585 175.939 74.9624Z" fill="#5E48DB" stroke="black" stroke-width="2"/>
<path d="M219.873 60.518C219.052 60.6585 218.288 60.5967 217.581 60.3325C216.882 60.0587 216.292 59.6237 215.814 59.0275C215.342 58.4218 215.032 57.6879 214.885 56.8258C214.737 55.9636 214.786 55.1726 215.031 54.4526C215.283 53.723 215.694 53.117 216.265 52.6343C216.834 52.1435 217.529 51.8279 218.35 51.6874C218.904 51.5928 219.441 51.6054 219.964 51.7253C220.486 51.837 220.963 52.0357 221.397 52.3215C221.839 52.6058 222.202 52.9624 222.484 53.3912L221.281 54.137C221.082 53.853 220.836 53.6146 220.543 53.4219C220.257 53.2196 219.945 53.0805 219.605 53.0047C219.266 52.9288 218.921 52.9208 218.572 52.9806C218.035 53.0724 217.578 53.2887 217.201 53.6294C216.832 53.9688 216.566 54.3952 216.403 54.9086C216.246 55.4126 216.22 55.9695 216.324 56.5795C216.429 57.1895 216.639 57.7102 216.956 58.1416C217.28 58.5716 217.677 58.8846 218.146 59.0807C218.623 59.2754 219.134 59.3261 219.679 59.2329C220.037 59.1717 220.358 59.0455 220.644 58.8544C220.936 58.6537 221.182 58.4064 221.383 58.1126C221.592 57.8173 221.741 57.4904 221.831 57.1319L223.214 57.4353C223.092 57.95 222.877 58.4264 222.567 58.8645C222.255 59.2945 221.869 59.6536 221.407 59.9418C220.946 60.23 220.435 60.4221 219.873 60.518ZM224.724 59.5377L223.232 50.89L224.599 50.6563L226.091 59.3039L224.724 59.5377ZM228.86 58.8302L228.326 55.7071L229.63 55.1074L230.226 58.5965L228.86 58.8302ZM228.326 55.7071C228.242 55.2191 228.121 54.8547 227.963 54.6139C227.803 54.365 227.613 54.205 227.391 54.1341C227.178 54.0617 226.941 54.0478 226.681 54.0923C226.216 54.1635 225.884 54.3752 225.684 54.7274C225.493 55.0782 225.447 55.5423 225.546 56.1198L225.021 56.2095C224.911 55.567 224.911 55.002 225.02 54.5145C225.136 54.0175 225.349 53.6212 225.658 53.3255C225.966 53.0217 226.36 52.8287 226.84 52.7467C227.572 52.6215 228.18 52.7518 228.665 53.1377C229.148 53.5155 229.47 54.172 229.63 55.1074L228.326 55.7071ZM235.307 57.7275L235.05 56.5912L234.709 54.6026C234.639 54.1878 234.535 53.8498 234.398 53.5886C234.261 53.3273 234.083 53.1402 233.862 53.0272C233.65 52.9128 233.39 52.882 233.081 52.9349C232.796 52.9836 232.554 53.0877 232.356 53.2473C232.157 53.4068 232.006 53.6252 231.903 53.9024L230.583 53.676C230.675 53.384 230.811 53.1012 230.99 52.8278C231.17 52.5544 231.414 52.32 231.724 52.1247C232.042 51.928 232.433 51.79 232.896 51.7107C233.49 51.6092 234.001 51.6348 234.429 51.7876C234.865 51.9391 235.217 52.2136 235.486 52.6113C235.755 53.009 235.944 53.525 236.053 54.1594L236.588 57.5084L235.307 57.7275ZM233.599 58.1703C232.867 58.2955 232.27 58.2302 231.808 57.9744C231.354 57.7173 231.076 57.2918 230.974 56.6981C230.866 56.0637 230.995 55.5436 231.36 55.1378C231.734 54.7306 232.304 54.4616 233.068 54.3308L234.703 54.0512L234.882 55.1004L233.687 55.3049C233.142 55.3981 232.773 55.5408 232.58 55.7328C232.385 55.9168 232.312 56.1471 232.359 56.4236C232.399 56.6595 232.525 56.8305 232.735 56.9368C232.953 57.0335 233.232 57.0527 233.574 56.9943C233.875 56.9428 234.123 56.8291 234.319 56.6533C234.522 56.468 234.665 56.251 234.748 56.0024C234.838 55.7443 234.86 55.481 234.814 55.2126L235.314 55.127C235.456 55.9566 235.389 56.642 235.113 57.183C234.844 57.7146 234.34 58.0437 233.599 58.1703ZM240.461 56.9966C239.818 57.1065 239.299 57.0321 238.903 56.7733C238.514 56.5051 238.268 56.07 238.165 55.4681L237.09 49.1852L238.445 48.9535L239.476 54.9803C239.524 55.265 239.626 55.4694 239.781 55.5935C239.945 55.7162 240.156 55.7554 240.417 55.7108C240.498 55.6969 240.585 55.6654 240.677 55.6161C240.769 55.5669 240.868 55.4871 240.975 55.3768L241.652 56.3282C241.466 56.5108 241.273 56.6568 241.074 56.7661C240.877 56.8836 240.672 56.9605 240.461 56.9966ZM236.604 52.4327L236.403 51.2615L240.417 50.575L240.618 51.7462L236.604 52.4327Z" fill="#6D6C75"/>
<path d="M227.335 91.6171C226.294 91.7952 225.344 91.7954 224.486 91.6175C223.625 91.424 222.898 91.1101 222.304 90.676C221.71 90.2419 221.275 89.7401 220.999 89.1705L223.33 87.9926C223.608 88.4806 224.04 88.8694 224.625 89.1588C225.226 89.4456 225.922 89.5294 226.714 89.4103C227.613 89.2565 228.291 88.9537 228.75 88.5019C229.221 88.0317 229.404 87.489 229.299 86.8739C229.207 86.3377 228.902 85.9274 228.382 85.6429C227.879 85.3557 227.24 85.1809 226.466 85.1185L224.568 84.9807C223.826 84.9128 223.148 84.7448 222.534 84.4765C221.917 84.1924 221.405 83.8093 220.998 83.327C220.588 82.829 220.32 82.2094 220.193 81.4682C219.955 80.0803 220.22 78.9231 220.987 77.9966C221.767 77.0515 223 76.4346 224.688 76.1459C225.65 75.9813 226.511 75.9882 227.272 76.1664C228.03 76.3288 228.691 76.6298 229.253 77.0693C229.812 77.493 230.256 78.0014 230.585 78.5945L228.286 79.8157C227.989 79.3145 227.55 78.9271 226.967 78.6534C226.382 78.364 225.711 78.284 224.954 78.4135C224.165 78.5484 223.575 78.8443 223.182 79.301C222.803 79.7393 222.668 80.2817 222.779 80.9283C222.873 81.4803 223.12 81.8764 223.518 82.1167C223.932 82.3543 224.444 82.502 225.055 82.5599L226.977 82.6937C228.374 82.7955 229.504 83.1866 230.367 83.8667C231.246 84.5442 231.768 85.364 231.932 86.326C232.078 87.1776 231.995 87.9711 231.682 88.7063C231.383 89.4231 230.871 90.0381 230.147 90.5516C229.423 91.065 228.486 91.4202 227.335 91.6171ZM226.733 94.788L226.065 90.8848L228.336 90.4962L229.004 94.3995L226.733 94.788ZM223.827 77.8028L223.159 73.8996L225.43 73.511L226.098 77.4143L223.827 77.8028ZM237.63 89.5148L234.747 88.742C234.663 88.2531 234.703 87.7268 234.866 87.1632C235.027 86.5838 235.29 85.9869 235.656 85.3725C236.037 84.7553 236.503 84.1562 237.052 83.5752L239.582 80.9996C239.902 80.6852 240.183 80.3368 240.426 79.9544C240.685 79.5692 240.878 79.1791 241.005 78.784C241.13 78.3731 241.161 77.9863 241.099 77.6236C241.02 77.1662 240.831 76.7685 240.529 76.4305C240.244 76.0898 239.869 75.8454 239.406 75.6975C238.958 75.5468 238.434 75.5228 237.835 75.6253C237.299 75.7171 236.837 75.9098 236.449 76.2034C236.074 76.4786 235.782 76.8126 235.573 77.2054C235.364 77.5982 235.24 78.0091 235.2 78.438L232.295 78.3992C232.324 77.6153 232.535 76.8568 232.929 76.1238C233.336 75.3724 233.908 74.7308 234.645 74.1989C235.397 73.6643 236.294 73.308 237.335 73.1299C238.502 72.9302 239.548 72.9705 240.472 73.2506C241.413 73.528 242.176 74.0061 242.763 74.6848C243.363 75.3451 243.745 76.1562 243.91 77.1183C244.077 78.0961 243.96 79.0251 243.559 79.9054C243.171 80.7672 242.564 81.6339 241.739 82.5055L239.426 84.9222C239.038 85.3132 238.682 85.7474 238.358 86.2249C238.047 86.684 237.816 87.186 237.666 87.7312C237.532 88.2736 237.52 88.8682 237.63 89.5148ZM235.107 90.8474L234.747 88.742L236.725 88.0627L245.738 86.5207L246.154 88.9573L235.107 90.8474Z" fill="#0A0A0A"/>
<path d="M248.753 90.5498L250.336 80.1621L251.46 79.9698L249.901 90.3535L248.753 90.5498ZM253.934 88.6408L252.922 82.7267L253.975 82.5466L254.232 83.6227L255.058 88.4486L253.934 88.6408ZM258.026 87.9406L257.508 84.9126L258.571 84.3655L259.15 87.7484L258.026 87.9406ZM262.119 87.2404L261.601 84.2124L262.652 83.6674L263.231 87.0502L262.119 87.2404ZM257.508 84.9126C257.417 84.3764 257.284 83.9811 257.111 83.7267C256.944 83.4631 256.741 83.2949 256.501 83.2223C256.269 83.1483 256.011 83.1317 255.725 83.1724C255.244 83.2547 254.899 83.4883 254.689 83.8732C254.479 84.2582 254.426 84.7582 254.531 85.3732L254.046 85.4562C253.94 84.8333 253.939 84.2855 254.045 83.8129C254.15 83.3324 254.351 82.9448 254.65 82.6503C254.956 82.3543 255.35 82.1652 255.831 82.0829C256.541 81.9615 257.135 82.0872 257.612 82.46C258.096 82.8235 258.416 83.4587 258.571 84.3655L257.508 84.9126ZM261.601 84.2124C261.509 83.6762 261.377 83.2809 261.203 83.0265C261.028 82.7642 260.825 82.5961 260.593 82.5221C260.362 82.4481 260.103 82.4315 259.818 82.4722C259.337 82.5545 258.991 82.7881 258.781 83.173C258.571 83.558 258.519 84.058 258.624 84.673L258.139 84.756C258.032 84.1331 258.032 83.5853 258.138 83.1127C258.242 82.6322 258.444 82.2446 258.742 81.9501C259.049 81.6541 259.443 81.465 259.924 81.3827C260.633 81.2613 261.227 81.387 261.705 81.7598C262.189 82.1233 262.505 82.7592 262.652 83.6674L261.601 84.2124ZM264.736 86.7927L263.747 80.8746L264.859 80.6844L265.859 86.6005L264.736 86.7927ZM264.077 79.5277C263.896 79.5588 263.727 79.5187 263.57 79.4076C263.411 79.2886 263.317 79.1384 263.285 78.9571C263.253 78.7678 263.293 78.5986 263.406 78.4495C263.517 78.2926 263.663 78.1985 263.844 78.1675C264.034 78.1351 264.203 78.1752 264.352 78.2876C264.508 78.3909 264.602 78.5371 264.634 78.7264C264.665 78.9077 264.626 79.0809 264.516 79.2457C264.413 79.4014 264.266 79.4954 264.077 79.5277ZM267.506 86.3187L266.494 80.4047L267.547 80.2245L267.804 81.3006L268.63 86.1265L267.506 86.3187ZM271.599 85.6185L271.081 82.5905L272.144 82.0434L272.722 85.4263L271.599 85.6185ZM271.081 82.5905C270.989 82.0543 270.856 81.659 270.683 81.4046C270.516 81.141 270.313 80.9728 270.073 80.9002C269.841 80.8263 269.583 80.8096 269.298 80.8503C268.817 80.9326 268.471 81.1662 268.261 81.5512C268.051 81.9361 267.999 82.4361 268.104 83.0512L267.619 83.1341C267.512 82.5112 267.512 81.9634 267.618 81.4908C267.722 81.0103 267.924 80.6228 268.222 80.3282C268.529 80.0323 268.922 79.8431 269.403 79.7608C270.113 79.6394 270.707 79.7651 271.185 80.1379C271.669 80.5014 271.989 81.1366 272.144 82.0434L271.081 82.5905Z" fill="#73707D"/>
<rect x="116.706" y="44.5157" width="200" height="91.65" rx="17.6816" transform="rotate(-9.70631 116.706 44.5157)" stroke="#EEEEEE"/>
</g>
<defs>
<filter id="filter0_ddddd_145_2608" x="-1.29443" y="-2.20386" width="337.589" height="211.058" filterUnits="userSpaceOnUse" color-interpolation-filters="sRGB">
<feFlood flood-opacity="0" result="BackgroundImageFix"/>
<feColorMatrix in="SourceAlpha" type="matrix" values="0 0 0 0 0 0 0 0 0 0 0 0 0 0 0 0 0 0 127 0" result="hardAlpha"/>
<feOffset/>
<feColorMatrix type="matrix" values="0 0 0 0 0.690196 0 0 0 0 0.658824 0 0 0 0 0.839216 0 0 0 0.1 0"/>
<feBlend mode="normal" in2="BackgroundImageFix" result="effect1_dropShadow_145_2608"/>
<feColorMatrix in="SourceAlpha" type="matrix" values="0 0 0 0 0 0 0 0 0 0 0 0 0 0 0 0 0 0 127 0" result="hardAlpha"/>
<feOffset dx="-5" dy="2"/>
<feGaussianBlur stdDeviation="6"/>
<feColorMatrix type="matrix" values="0 0 0 0 0.690196 0 0 0 0 0.658824 0 0 0 0 0.839216 0 0 0 0.1 0"/>
<feBlend mode="normal" in2="effect1_dropShadow_145_2608" result="effect2_dropShadow_145_2608"/>
<feColorMatrix in="SourceAlpha" type="matrix" values="0 0 0 0 0 0 0 0 0 0 0 0 0 0 0 0 0 0 127 0" result="hardAlpha"/>
<feOffset dx="-20" dy="10"/>
<feGaussianBlur stdDeviation="11.5"/>
<feColorMatrix type="matrix" values="0 0 0 0 0.690196 0 0 0 0 0.658824 0 0 0 0 0.839216 0 0 0 0.09 0"/>
<feBlend mode="normal" in2="effect2_dropShadow_145_2608" result="effect3_dropShadow_145_2608"/>
<feColorMatrix in="SourceAlpha" type="matrix" values="0 0 0 0 0 0 0 0 0 0 0 0 0 0 0 0 0 0 127 0" result="hardAlpha"/>
<feOffset dx="-46" dy="21"/>
<feGaussianBlur stdDeviation="15.5"/>
<feColorMatrix type="matrix" values="0 0 0 0 0.690196 0 0 0 0 0.658824 0 0 0 0 0.839216 0 0 0 0.05 0"/>
<feBlend mode="normal" in2="effect3_dropShadow_145_2608" result="effect4_dropShadow_145_2608"/>
<feColorMatrix in="SourceAlpha" type="matrix" values="0 0 0 0 0 0 0 0 0 0 0 0 0 0 0 0 0 0 127 0" result="hardAlpha"/>
<feOffset dx="-82" dy="38"/>
<feGaussianBlur stdDeviation="18"/>
<feColorMatrix type="matrix" values="0 0 0 0 0.690196 0 0 0 0 0.658824 0 0 0 0 0.839216 0 0 0 0.01 0"/>
<feBlend mode="normal" in2="effect4_dropShadow_145_2608" result="effect5_dropShadow_145_2608"/>
<feBlend mode="normal" in="SourceGraphic" in2="effect5_dropShadow_145_2608" result="shape"/>
</filter>
</defs>
</svg>
