<svg width="332" height="197" viewBox="0 0 332 197" fill="none" xmlns="http://www.w3.org/2000/svg">
<g filter="url(#filter0_ddddd_410_45)">
<path d="M308.07 30.5377L144.273 13.9284C134.558 12.9433 125.883 20.0206 124.898 29.736L119.249 85.4502C118.263 95.1657 125.341 103.84 135.056 104.825L298.853 121.435C308.568 122.42 317.243 115.343 318.228 105.627L323.878 49.9129C324.863 40.1974 317.786 31.5228 308.07 30.5377Z" fill="white"/>
<path d="M197.052 65.196C198.705 48.887 186.825 34.3253 170.516 32.6715C154.207 31.0178 139.645 42.8982 137.991 59.2072C136.338 75.5163 148.218 90.078 164.527 91.7318C180.836 93.3855 195.398 81.5051 197.052 65.196Z" fill="#2DC3F5"/>
<path d="M177.682 54.3224L177.678 54.3246L176.868 54.7829C176.762 53.1786 176.312 51.8272 175.369 50.7747C174.107 49.3666 172.149 48.7068 169.657 48.4541L160.861 47.5622C158.263 47.2987 156.14 47.5867 154.604 48.8401C153.068 50.0935 152.359 52.1153 152.096 54.7134L150.907 66.4409C150.719 68.2904 151.018 70.3297 152.149 72.0052C153.302 73.714 155.238 74.9201 158.058 75.206L166.854 76.0979C169.346 76.3506 171.396 76.0974 172.915 74.9712C174.051 74.1295 174.762 72.8958 175.188 71.3454L175.889 71.9561L175.89 71.9568C176.87 72.8135 177.831 73.1975 178.691 73.2847C179.432 73.3598 180.037 73.1989 180.438 73.0377C180.883 72.8629 181.47 72.5246 181.979 71.8871C182.492 71.243 182.882 70.348 183.005 69.133L184.081 58.5195C184.204 57.3045 184.003 56.3496 183.629 55.6154C183.26 54.8909 182.754 54.442 182.353 54.181C181.948 53.9093 181.332 53.6252 180.521 53.5776C179.699 53.5293 178.745 53.7276 177.682 54.3224ZM166.249 60.1493C165.285 60.0515 164.568 59.1813 164.667 58.2096C164.765 57.2379 165.642 56.5294 166.606 56.6271C167.57 56.7248 168.287 57.5951 168.189 58.5668C168.09 59.5384 167.213 60.247 166.249 60.1493Z" fill="#03A062" stroke="black" stroke-width="2"/>
<path d="M220.559 54.7076L224.807 46.43L226.334 46.5848L221.975 54.8512L220.559 54.7076ZM220.411 54.6926L217.8 45.7195L219.315 45.8731L221.815 54.835L220.411 54.6926ZM226.419 55.3019L227.056 49.1462L228.423 49.2848L227.786 55.4405L226.419 55.3019ZM227.852 48.045C227.63 48.0225 227.445 47.925 227.297 47.7524C227.157 47.5723 227.099 47.3715 227.121 47.1499C227.144 46.9282 227.241 46.7473 227.413 46.6072C227.593 46.4678 227.794 46.4094 228.015 46.4319C228.237 46.4544 228.418 46.5515 228.558 46.7233C228.706 46.8959 228.769 47.093 228.747 47.3147C228.724 47.5363 228.623 47.7209 228.442 47.8685C228.27 48.0086 228.073 48.0675 227.852 48.045ZM233.857 56.0561L233.911 54.9046L234.669 47.4301L236.036 47.5687L235.162 56.1884L233.857 56.0561ZM231.835 56.0003C231.276 55.9437 230.801 55.7628 230.409 55.4577C230.026 55.1451 229.74 54.7346 229.551 54.2261C229.371 53.7185 229.313 53.1404 229.379 52.4918C229.445 51.8351 229.618 51.2803 229.896 50.8275C230.183 50.3673 230.545 50.0266 230.982 49.8056C231.429 49.5771 231.931 49.4912 232.489 49.5478C233.006 49.6002 233.436 49.7806 233.778 50.089C234.129 50.39 234.378 50.7927 234.526 51.297C234.675 51.7931 234.716 52.3695 234.649 53.0263C234.583 53.6748 234.428 54.2313 234.181 54.6956C233.935 55.16 233.61 55.5085 233.205 55.7411C232.808 55.9663 232.352 56.0527 231.835 56.0003ZM232.307 54.7792C232.619 54.8109 232.902 54.7567 233.157 54.6166C233.421 54.4692 233.633 54.2544 233.794 53.9722C233.964 53.6908 234.068 53.3572 234.107 52.9713C234.147 52.5855 234.111 52.2377 234.002 51.928C233.9 51.6192 233.735 51.3702 233.505 51.181C233.284 50.9927 233.013 50.8823 232.693 50.8498C232.364 50.8165 232.065 50.8691 231.794 51.0075C231.522 51.1458 231.298 51.3553 231.12 51.6359C230.951 51.9172 230.842 52.2504 230.795 52.6354C230.764 53.0221 230.803 53.3703 230.913 53.68C231.031 53.9905 231.208 54.2449 231.445 54.4431C231.691 54.6339 231.978 54.7459 232.307 54.7792ZM239.418 56.7692C238.819 56.7085 238.299 56.5189 237.858 56.2006C237.427 55.8748 237.1 55.456 236.878 54.9442C236.665 54.4332 236.59 53.8617 236.654 53.2296C236.718 52.5975 236.91 52.053 237.23 51.5961C237.55 51.1392 237.958 50.799 238.453 50.5756C238.958 50.3447 239.514 50.2601 240.121 50.3217C240.671 50.3775 241.149 50.5711 241.555 50.9026C241.97 51.2266 242.282 51.6688 242.491 52.229C242.699 52.7893 242.766 53.4388 242.691 54.1776L241.3 54.0365C241.354 53.5029 241.333 53.0571 241.236 52.699C241.148 52.3417 240.993 52.0689 240.772 51.8806C240.56 51.6849 240.285 51.5699 239.949 51.5358C239.596 51.5 239.284 51.5472 239.014 51.6774C238.743 51.8076 238.527 52.0178 238.365 52.3083C238.204 52.5905 238.1 52.9574 238.054 53.4089C238.013 53.8111 238.056 54.1638 238.183 54.467C238.318 54.7709 238.513 55.0146 238.769 55.1981C239.033 55.3742 239.333 55.4793 239.67 55.5134C240.039 55.5509 240.351 55.4996 240.606 55.3595C240.861 55.2113 241.068 55.0124 241.226 54.7631L242.439 55.4335C242.234 55.7444 241.983 56.0092 241.687 56.228C241.399 56.4477 241.064 56.6044 240.682 56.6983C240.307 56.7931 239.886 56.8167 239.418 56.7692ZM237.532 53.6545L237.643 52.5585L242.076 53.008L241.965 54.104L237.532 53.6545ZM246.286 57.4657C245.671 57.4033 245.134 57.2121 244.677 56.892C244.23 56.5646 243.895 56.145 243.673 55.6332C243.451 55.1214 243.372 54.5494 243.436 53.9173C243.501 53.2852 243.689 52.7403 244 52.2826C244.32 51.8257 244.732 51.4859 245.236 51.2633C245.74 51.0325 246.3 50.9483 246.916 51.0107C247.532 51.0731 248.063 51.2681 248.511 51.5955C248.96 51.9146 249.291 52.3297 249.505 52.8407C249.726 53.3525 249.805 53.9245 249.741 54.5566C249.677 55.1887 249.489 55.7337 249.177 56.1914C248.866 56.6491 248.457 56.9933 247.953 57.2242C247.449 57.4468 246.894 57.5273 246.286 57.4657ZM246.415 56.1974C246.752 56.2315 247.059 56.1798 247.339 56.0423C247.619 55.8965 247.848 55.6874 248.024 55.4151C248.202 55.1346 248.311 54.8014 248.35 54.4155C248.389 54.0297 248.345 53.6852 248.218 53.3821C248.1 53.0715 247.918 52.8209 247.672 52.63C247.427 52.431 247.132 52.314 246.787 52.279C246.443 52.2441 246.131 52.2954 245.851 52.4329C245.572 52.5705 245.343 52.7795 245.166 53.0601C244.988 53.3406 244.879 53.6738 244.84 54.0597C244.801 54.4455 244.84 54.7937 244.958 55.1042C245.085 55.4073 245.271 55.6584 245.516 55.8575C245.771 56.0491 246.07 56.1624 246.415 56.1974ZM256.461 58.4974C255.829 58.4333 255.284 58.2413 254.827 57.9213C254.371 57.593 254.028 57.1726 253.798 56.6599C253.577 56.1481 253.498 55.5762 253.562 54.944C253.626 54.3119 253.818 53.7674 254.138 53.3105C254.466 52.8545 254.882 52.5152 255.386 52.2925C255.898 52.0625 256.467 51.9792 257.091 52.0424C257.698 52.104 258.233 52.3076 258.696 52.6531C259.159 52.9903 259.482 53.4419 259.666 54.0079L258.335 54.3706C258.231 54.0864 258.052 53.8484 257.798 53.6568C257.543 53.4651 257.244 53.3518 256.899 53.3168C256.563 53.2827 256.254 53.3385 255.974 53.4843C255.695 53.6218 255.466 53.8309 255.288 54.1114C255.111 54.3838 255.004 54.7088 254.966 55.0864C254.927 55.464 254.967 55.8081 255.085 56.1186C255.212 56.4217 255.398 56.6728 255.643 56.8719C255.897 57.0635 256.193 57.1764 256.529 57.2105C256.874 57.2455 257.191 57.1905 257.479 57.0456C257.768 56.8925 257.994 56.6707 258.156 56.3803L259.387 57.0027C259.092 57.5368 258.683 57.9348 258.158 58.1968C257.642 58.4597 257.077 58.5599 256.461 58.4974ZM264.024 59.115L264.079 57.9513L264.283 55.9441C264.325 55.5254 264.316 55.1719 264.254 54.8837C264.192 54.5954 264.07 54.3674 263.888 54.1996C263.714 54.0327 263.471 53.9335 263.159 53.9018C262.872 53.8727 262.611 53.9085 262.377 54.0091C262.143 54.1098 261.939 54.2799 261.765 54.5194L260.554 53.9487C260.721 53.692 260.928 53.4558 261.173 53.2402C261.419 53.0246 261.717 52.8641 262.068 52.7587C262.427 52.6541 262.841 52.6255 263.308 52.6729C263.908 52.7337 264.393 52.8949 264.765 53.1565C265.144 53.4189 265.411 53.7777 265.564 54.2328C265.717 54.6878 265.761 55.2355 265.696 55.8759L265.317 59.2461L264.024 59.115ZM262.26 59.0855C261.521 59.0106 260.963 58.7881 260.586 58.4181C260.217 58.049 260.063 57.5647 260.124 56.9655C260.189 56.3251 260.452 55.8583 260.913 55.565C261.382 55.2726 262.002 55.1655 262.774 55.2437L264.424 55.411L264.317 56.47L263.11 56.3477C262.56 56.2919 262.166 56.3307 261.929 56.4642C261.692 56.5895 261.56 56.7917 261.531 57.0709C261.507 57.3089 261.582 57.5073 261.757 57.666C261.941 57.8173 262.205 57.9105 262.55 57.9455C262.854 57.9763 263.123 57.9331 263.359 57.816C263.604 57.6916 263.8 57.5207 263.946 57.3033C264.102 57.0785 264.193 56.8307 264.221 56.5598L264.725 56.611C264.641 57.4483 264.393 58.0909 263.983 58.5386C263.581 58.9789 263.007 59.1612 262.26 59.0855ZM266.75 59.3915L267.624 50.7717L269.003 50.9116L268.129 59.5313L266.75 59.3915ZM269.66 59.6866L270.534 51.0668L271.913 51.2067L271.039 59.8264L269.66 59.6866Z" fill="#6D6C75"/>
<path d="M220.434 86.9198C219.384 86.8133 218.468 86.5598 217.689 86.1591C216.911 85.7425 216.294 85.2458 215.838 84.6688C215.382 84.0919 215.097 83.4921 214.983 82.8695L217.544 82.3571C217.681 82.9018 217.994 83.3917 218.48 83.827C218.983 84.2639 219.631 84.5307 220.425 84.6273C221.333 84.7192 222.068 84.6088 222.63 84.2959C223.21 83.9687 223.531 83.4947 223.594 82.8739C223.649 82.3327 223.464 81.8556 223.04 81.4427C222.631 81.0314 222.062 80.6923 221.334 80.4254L219.541 79.7854C218.844 79.5218 218.236 79.1787 217.716 78.7561C217.197 78.3176 216.806 77.8116 216.543 77.2381C216.281 76.6486 216.188 75.9798 216.264 75.2317C216.406 73.8309 216.97 72.7864 217.956 72.0984C218.96 71.3961 220.314 71.1312 222.017 71.3039C222.988 71.4023 223.816 71.639 224.502 72.0141C225.189 72.3732 225.745 72.8396 226.169 73.4133C226.595 73.9711 226.887 74.5797 227.046 75.239L224.504 75.8016C224.352 75.2394 224.032 74.7486 223.544 74.3292C223.057 73.8939 222.432 73.6376 221.668 73.5601C220.872 73.4795 220.224 73.6067 219.723 73.942C219.24 74.2629 218.966 74.7497 218.9 75.4024C218.843 75.9595 218.975 76.4071 219.294 76.745C219.63 77.0846 220.084 77.3638 220.657 77.5827L222.473 78.2252C223.793 78.6966 224.777 79.3753 225.427 80.2614C226.093 81.1491 226.377 82.0784 226.278 83.0494C226.191 83.909 225.899 84.6513 225.401 85.2764C224.921 85.8871 224.264 86.3431 223.429 86.6445C222.595 86.9458 221.596 87.0376 220.434 86.9198ZM219.007 89.8147L219.406 85.8749L221.699 86.1072L221.299 90.047L219.007 89.8147ZM220.745 72.6705L221.144 68.7307L223.436 68.963L223.037 72.9029L220.745 72.6705ZM230.917 87.6447L228.345 86.1296C228.395 85.6361 228.574 85.1396 228.882 84.6401C229.192 84.1247 229.605 83.6198 230.121 83.1253C230.653 82.6325 231.262 82.1796 231.947 81.7666L235.073 79.9606C235.465 79.743 235.829 79.4824 236.166 79.1788C236.518 78.8768 236.808 78.5524 237.036 78.2056C237.266 77.8429 237.4 77.4785 237.437 77.1124C237.483 76.6508 237.407 76.2168 237.207 75.8106C237.023 75.406 236.727 75.0704 236.32 74.804C235.928 74.5392 235.43 74.3762 234.825 74.3148C234.284 74.26 233.787 74.3222 233.335 74.5015C232.9 74.6665 232.53 74.9104 232.224 75.2331C231.917 75.5559 231.688 75.9186 231.534 76.3212L228.746 75.5079C228.983 74.7599 229.389 74.0854 229.964 73.4844C230.558 72.8691 231.28 72.4036 232.132 72.0879C233 71.7738 233.96 71.6701 235.01 71.7765C236.188 71.8959 237.185 72.2141 238.001 72.731C238.833 73.2496 239.441 73.9143 239.826 74.7252C240.227 75.5217 240.379 76.4055 240.281 77.3766C240.18 78.3635 239.82 79.2275 239.198 79.9686C238.593 80.6953 237.777 81.3685 236.75 81.988L233.874 83.6988C233.396 83.972 232.937 84.2953 232.497 84.6689C232.075 85.0281 231.719 85.4503 231.428 85.9355C231.154 86.4223 230.983 86.992 230.917 87.6447ZM228.13 88.2547L228.345 86.1296L230.432 86.0034L239.53 86.9255L239.28 89.3849L228.13 88.2547Z" fill="#0A0A0A"/>
<path d="M241.359 91.6138L245.66 82.0267L246.794 82.1416L242.517 91.7312L241.359 91.6138ZM246.862 91.1584L247.467 85.189L248.529 85.2967L248.49 86.4023L247.996 91.2733L246.862 91.1584ZM250.992 91.5771L251.302 88.5207L252.473 88.2775L252.127 91.692L250.992 91.5771ZM255.123 91.9958L255.433 88.9394L256.592 88.695L256.246 92.1095L255.123 91.9958ZM251.302 88.5207C251.357 87.9795 251.335 87.5632 251.236 87.2717C251.146 86.973 250.995 86.7567 250.783 86.6227C250.579 86.4895 250.335 86.4044 250.049 86.3674C249.564 86.3182 249.168 86.451 248.863 86.7658C248.558 87.0806 248.373 87.5484 248.31 88.1692L247.821 88.1196C247.885 87.4909 248.031 86.9629 248.259 86.5357C248.488 86.1006 248.786 85.781 249.152 85.5769C249.527 85.3736 249.957 85.2966 250.442 85.3458C251.158 85.4184 251.697 85.6981 252.058 86.185C252.427 86.6647 252.566 87.3622 252.473 88.2775L251.302 88.5207ZM255.433 88.9394C255.488 88.3982 255.466 87.9819 255.367 87.6904C255.268 87.3909 255.117 87.1746 254.914 87.0414C254.71 86.9082 254.466 86.8231 254.18 86.7861C253.694 86.7369 253.299 86.8697 252.994 87.1845C252.688 87.4993 252.504 87.9671 252.441 88.5879L251.952 88.5383C252.016 87.9096 252.162 87.3816 252.39 86.9544C252.619 86.5193 252.917 86.1997 253.283 85.9956C253.657 85.7923 254.087 85.7153 254.573 85.7645C255.289 85.8371 255.828 86.1168 256.189 86.6037C256.558 87.0834 256.692 87.7805 256.592 88.695L255.433 88.9394ZM257.765 92.2635L258.393 86.2965L259.516 86.4102L258.899 92.3784L257.765 92.2635ZM259.071 85.0866C258.888 85.0681 258.736 84.9843 258.614 84.8353C258.493 84.6783 258.442 84.5083 258.461 84.3252C258.48 84.1342 258.564 83.9819 258.712 83.8682C258.861 83.7466 259.027 83.6951 259.21 83.7137C259.401 83.733 259.553 83.8168 259.667 83.965C259.789 84.1061 259.841 84.2721 259.822 84.4632C259.803 84.6462 259.719 84.8025 259.569 84.9321C259.428 85.0545 259.262 85.106 259.071 85.0866ZM260.561 92.5469L261.166 86.5775L262.229 86.6852L262.189 87.7909L261.695 92.6619L260.561 92.5469ZM264.692 92.9656L265.002 89.9093L266.172 89.6661L265.826 93.0806L264.692 92.9656ZM265.002 89.9093C265.056 89.3681 265.034 88.9517 264.935 88.6602C264.845 88.3616 264.694 88.1453 264.482 88.0113C264.279 87.878 264.034 87.7929 263.748 87.7559C263.263 87.7067 262.867 87.8395 262.562 88.1543C262.257 88.4692 262.073 88.937 262.01 89.5578L261.52 89.5082C261.584 88.8794 261.73 88.3514 261.958 87.9243C262.187 87.4892 262.485 87.1696 262.852 86.9655C263.226 86.7622 263.656 86.6852 264.141 86.7344C264.858 86.807 265.396 87.0867 265.757 87.5736C266.127 88.0533 266.265 88.7508 266.172 89.6661L265.002 89.9093Z" fill="#73707D"/>
<path d="M308.07 30.5377L144.273 13.9284C134.558 12.9433 125.883 20.0206 124.898 29.736L119.249 85.4502C118.263 95.1657 125.341 103.84 135.056 104.825L298.853 121.435C308.568 122.42 317.243 115.343 318.228 105.627L323.878 49.9129C324.863 40.1974 317.786 31.5228 308.07 30.5377Z" stroke="#EEEEEE"/>
</g>
<defs>
<filter id="filter0_ddddd_410_45" x="0.656982" y="0.336792" width="330.812" height="195.689" filterUnits="userSpaceOnUse" color-interpolation-filters="sRGB">
<feFlood flood-opacity="0" result="BackgroundImageFix"/>
<feColorMatrix in="SourceAlpha" type="matrix" values="0 0 0 0 0 0 0 0 0 0 0 0 0 0 0 0 0 0 127 0" result="hardAlpha"/>
<feOffset/>
<feColorMatrix type="matrix" values="0 0 0 0 0.690196 0 0 0 0 0.658824 0 0 0 0 0.839216 0 0 0 0.1 0"/>
<feBlend mode="normal" in2="BackgroundImageFix" result="effect1_dropShadow_410_45"/>
<feColorMatrix in="SourceAlpha" type="matrix" values="0 0 0 0 0 0 0 0 0 0 0 0 0 0 0 0 0 0 127 0" result="hardAlpha"/>
<feOffset dx="-5" dy="2"/>
<feGaussianBlur stdDeviation="6"/>
<feColorMatrix type="matrix" values="0 0 0 0 0.690196 0 0 0 0 0.658824 0 0 0 0 0.839216 0 0 0 0.1 0"/>
<feBlend mode="normal" in2="effect1_dropShadow_410_45" result="effect2_dropShadow_410_45"/>
<feColorMatrix in="SourceAlpha" type="matrix" values="0 0 0 0 0 0 0 0 0 0 0 0 0 0 0 0 0 0 127 0" result="hardAlpha"/>
<feOffset dx="-20" dy="10"/>
<feGaussianBlur stdDeviation="11.5"/>
<feColorMatrix type="matrix" values="0 0 0 0 0.690196 0 0 0 0 0.658824 0 0 0 0 0.839216 0 0 0 0.09 0"/>
<feBlend mode="normal" in2="effect2_dropShadow_410_45" result="effect3_dropShadow_410_45"/>
<feColorMatrix in="SourceAlpha" type="matrix" values="0 0 0 0 0 0 0 0 0 0 0 0 0 0 0 0 0 0 127 0" result="hardAlpha"/>
<feOffset dx="-46" dy="21"/>
<feGaussianBlur stdDeviation="15.5"/>
<feColorMatrix type="matrix" values="0 0 0 0 0.690196 0 0 0 0 0.658824 0 0 0 0 0.839216 0 0 0 0.05 0"/>
<feBlend mode="normal" in2="effect3_dropShadow_410_45" result="effect4_dropShadow_410_45"/>
<feColorMatrix in="SourceAlpha" type="matrix" values="0 0 0 0 0 0 0 0 0 0 0 0 0 0 0 0 0 0 127 0" result="hardAlpha"/>
<feOffset dx="-82" dy="38"/>
<feGaussianBlur stdDeviation="18"/>
<feColorMatrix type="matrix" values="0 0 0 0 0.690196 0 0 0 0 0.658824 0 0 0 0 0.839216 0 0 0 0.01 0"/>
<feBlend mode="normal" in2="effect4_dropShadow_410_45" result="effect5_dropShadow_410_45"/>
<feBlend mode="normal" in="SourceGraphic" in2="effect5_dropShadow_410_45" result="shape"/>
</filter>
</defs>
</svg>
