<svg width="290" height="180" viewBox="0 0 290 180" fill="none" xmlns="http://www.w3.org/2000/svg">
<g filter="url(#filter0_ddddd_410_23)">
<path d="M264.432 14.2064L99.796 13.794C90.0308 13.7696 82.0947 21.6661 82.0702 31.4313L81.9302 87.3492C81.9057 97.1145 89.8022 105.051 99.5674 105.075L264.204 105.487C273.969 105.512 281.905 97.6154 281.93 87.8501L282.07 31.9322C282.094 22.1669 274.198 14.2308 264.432 14.2064Z" fill="white"/>
<path d="M127.794 29.8642L127.715 29.864C111.345 29.823 98.0415 43.0603 98.0005 59.4303L98.0005 59.4304C97.9595 75.8004 111.197 89.1041 127.567 89.1451L127.646 89.1453C144.016 89.1863 157.319 75.9491 157.36 59.5791L157.36 59.579C157.401 43.209 144.164 29.9052 127.794 29.8642Z" fill="#03A062"/>
<path d="M127.669 63.8572C130.046 63.8631 131.978 61.941 131.984 59.5641C131.99 57.1871 130.068 55.2554 127.691 55.2494C125.314 55.2435 123.382 57.1656 123.376 59.5425C123.37 61.9195 125.292 63.8512 127.669 63.8572Z" fill="#FDBE4B" stroke="black" stroke-width="2"/>
<path d="M135.81 51.6413C134.733 50.4601 132.902 50.3759 131.721 51.4533C130.539 52.5307 130.455 54.3617 131.533 55.5429C132.471 56.5713 134.14 59.8643 131.306 63.7377C130.361 65.0279 130.642 66.8393 131.932 67.7834C133.222 68.7276 135.034 68.447 135.978 67.1568C140.872 60.4686 138.062 54.1099 135.81 51.6413Z" fill="#FDBE4B" stroke="black" stroke-width="2" stroke-linecap="round" stroke-linejoin="round"/>
<path d="M119.55 67.368C120.627 68.5492 122.458 68.6334 123.64 67.556C124.821 66.4786 124.905 64.6476 123.828 63.4664C122.89 62.438 121.22 59.145 124.055 55.2716C124.999 53.9814 124.718 52.17 123.428 51.2259C122.138 50.2817 120.327 50.5623 119.382 51.8525C114.488 58.5407 117.298 64.8994 119.55 67.368Z" fill="#FDBE4B" stroke="black" stroke-width="2" stroke-linecap="round" stroke-linejoin="round"/>
<path d="M142.521 48.8486C141.448 47.663 139.618 47.5714 138.432 48.6441C137.246 49.7167 137.155 51.5473 138.227 52.7329C139.913 54.5958 142.624 60.1938 137.988 66.5814C137.048 67.8752 137.336 69.6855 138.63 70.6247C139.924 71.5639 141.734 71.2764 142.673 69.9825C149.343 60.7942 145.51 52.1528 142.521 48.8486Z" fill="#FDBE4B" stroke="black" stroke-width="2" stroke-linecap="round" stroke-linejoin="round"/>
<path d="M112.839 70.1606C113.912 71.3462 115.743 71.4378 116.928 70.3652C118.114 69.2925 118.206 67.4619 117.133 66.2763C115.448 64.4134 112.736 58.8155 117.373 52.4279C118.312 51.134 118.024 49.3237 116.731 48.3846C115.437 47.4454 113.626 47.7329 112.687 49.0267C106.018 58.215 109.85 66.8564 112.839 70.1606Z" fill="#FDBE4B" stroke="black" stroke-width="2" stroke-linecap="round" stroke-linejoin="round"/>
<path d="M176.985 46.8216L177.007 38.1577L178.443 38.1613L178.421 46.8252L176.985 46.8216ZM177.988 46.8241L177.991 45.5122L182.348 45.5231L182.344 46.8351L177.988 46.8241ZM183.375 46.8376L183.403 40.6491L184.777 40.6526L184.749 46.8411L183.375 46.8376ZM184.087 39.475C183.864 39.4745 183.67 39.3956 183.505 39.2384C183.349 39.073 183.271 38.8789 183.272 38.6561C183.272 38.4333 183.351 38.2437 183.508 38.0873C183.674 37.931 183.868 37.8531 184.091 37.8536C184.313 37.8542 184.503 37.9331 184.659 38.0902C184.824 38.2474 184.906 38.4374 184.906 38.6602C184.905 38.883 184.822 39.0767 184.657 39.2413C184.499 39.3977 184.309 39.4756 184.087 39.475ZM188.375 46.8502L190.804 40.6677L192.24 40.6713L189.675 46.8534L188.375 46.8502ZM188.276 46.8499L185.73 40.655L187.153 40.6585L189.564 46.8531L188.276 46.8499ZM195.681 47.017C195.079 47.0155 194.543 46.878 194.073 46.6045C193.612 46.3228 193.246 45.9382 192.975 45.4507C192.712 44.9632 192.581 44.4018 192.583 43.7664C192.584 43.1311 192.722 42.5703 192.996 42.0842C193.269 41.598 193.641 41.2194 194.112 40.9483C194.592 40.6689 195.137 40.53 195.747 40.5315C196.3 40.5329 196.795 40.6786 197.231 40.9684C197.676 41.2501 198.03 41.6594 198.293 42.1964C198.555 42.7334 198.686 43.3733 198.684 44.1159L197.285 44.1124C197.287 43.576 197.222 43.1344 197.091 42.7875C196.968 42.4407 196.787 42.1844 196.548 42.0188C196.317 41.8449 196.033 41.7576 195.695 41.7567C195.34 41.7558 195.034 41.8335 194.778 41.9896C194.522 42.1457 194.327 42.3763 194.195 42.6813C194.062 42.978 193.995 43.3533 193.994 43.8071C193.993 44.2114 194.07 44.5581 194.226 44.8473C194.391 45.1365 194.609 45.3599 194.881 45.5173C195.161 45.6666 195.47 45.7416 195.808 45.7425C196.18 45.7434 196.485 45.6616 196.725 45.4972C196.965 45.3245 197.151 45.1063 197.284 44.8426L198.557 45.3904C198.383 45.72 198.159 46.0083 197.886 46.2551C197.622 46.502 197.304 46.691 196.932 46.8221C196.569 46.9532 196.152 47.0182 195.681 47.017ZM193.498 44.1029L193.501 43.0013L197.956 43.0125L197.954 44.114L193.498 44.1029ZM202.724 46.8861L202.746 38.2222L204.132 38.2256L204.113 45.7385L204.036 46.8894L202.724 46.8861ZM206.066 47.043C205.546 47.0417 205.096 46.9085 204.718 46.6435C204.347 46.3703 204.063 45.99 203.866 45.5027C203.67 45.0154 203.572 44.4458 203.574 43.7939C203.575 43.1338 203.676 42.5647 203.875 42.0866C204.074 41.6003 204.36 41.2256 204.732 40.9625C205.112 40.6911 205.562 40.5561 206.082 40.5574C206.643 40.5588 207.129 40.6962 207.541 40.9695C207.962 41.2346 208.287 41.6109 208.516 42.0983C208.754 42.5775 208.873 43.1471 208.871 43.8072C208.869 44.4591 208.748 45.0281 208.508 45.5143C208.276 46.0006 207.949 46.3793 207.527 46.6506C207.114 46.9136 206.627 47.0444 206.066 47.043ZM205.722 45.7797C206.052 45.7805 206.345 45.6987 206.602 45.5343C206.858 45.3617 207.061 45.127 207.21 44.8303C207.367 44.5337 207.447 44.1915 207.448 43.8036C207.449 43.4158 207.375 43.0732 207.227 42.7758C207.088 42.4784 206.89 42.2469 206.635 42.0812C206.38 41.9155 206.083 41.8323 205.745 41.8314C205.431 41.8306 205.15 41.9124 204.902 42.0768C204.654 42.2413 204.46 42.4718 204.319 42.7685C204.186 43.0652 204.119 43.4075 204.118 43.7953C204.117 44.1831 204.182 44.5257 204.314 44.8231C204.453 45.1205 204.642 45.3561 204.881 45.53C205.128 45.6957 205.409 45.7789 205.722 45.7797ZM210.973 43.6144C210.975 42.9461 211.104 42.3977 211.361 41.9692C211.618 41.5408 211.949 41.224 212.353 41.0187C212.767 40.8052 213.196 40.699 213.641 40.7001L213.638 42.0245C213.259 42.0235 212.9 42.0762 212.561 42.1827C212.231 42.2809 211.962 42.4452 211.755 42.6757C211.548 42.9063 211.444 43.2113 211.443 43.5909L210.973 43.6144ZM210.049 46.9044L210.064 40.7159L211.451 40.7194L211.435 46.9079L210.049 46.9044ZM217.392 47.0714C216.773 47.0698 216.22 46.9323 215.734 46.6588C215.256 46.377 214.882 45.9924 214.611 45.5049C214.34 45.0174 214.205 44.4559 214.206 43.8206C214.208 43.1852 214.342 42.6244 214.607 42.1383C214.88 41.6521 215.257 41.2735 215.736 41.0024C216.215 40.7231 216.764 40.5842 217.383 40.5857C218.002 40.5873 218.55 40.7289 219.028 41.0107C219.506 41.2842 219.876 41.6646 220.139 42.1521C220.41 42.6396 220.545 43.2011 220.544 43.8364C220.542 44.4718 220.409 45.0326 220.143 45.5187C219.878 46.0049 219.506 46.3877 219.026 46.667C218.547 46.9381 218.002 47.0729 217.392 47.0714ZM217.395 45.7965C217.733 45.7974 218.035 45.7156 218.299 45.5512C218.563 45.3786 218.77 45.1481 218.92 44.8597C219.069 44.563 219.144 44.2208 219.145 43.8329C219.146 43.4451 219.068 43.1066 218.912 42.8174C218.765 42.52 218.559 42.2885 218.295 42.1228C218.032 41.9488 217.726 41.8614 217.38 41.8606C217.033 41.8597 216.728 41.9414 216.463 42.1058C216.199 42.2702 215.992 42.5007 215.843 42.7974C215.694 43.094 215.618 43.4363 215.617 43.8241C215.616 44.2119 215.69 44.5545 215.838 44.852C215.994 45.1411 216.204 45.3727 216.467 45.5467C216.739 45.7124 217.048 45.7956 217.395 45.7965ZM225.487 46.9431L225.428 45.7795L225.433 43.762C225.434 43.3412 225.39 42.9904 225.3 42.7097C225.21 42.4289 225.066 42.214 224.868 42.065C224.679 41.916 224.427 41.8411 224.114 41.8403C223.825 41.8396 223.569 41.9008 223.346 42.024C223.123 42.1472 222.937 42.3365 222.788 42.592L221.526 42.1432C221.667 41.8713 221.849 41.616 222.073 41.3772C222.296 41.1385 222.577 40.9494 222.916 40.81C223.263 40.6706 223.671 40.6015 224.142 40.6026C224.744 40.6042 225.243 40.7168 225.638 40.9406C226.042 41.1644 226.343 41.4952 226.54 41.933C226.736 42.3708 226.834 42.9115 226.832 43.5551L226.787 46.9464L225.487 46.9431ZM223.729 47.0872C222.987 47.0854 222.41 46.9189 221.998 46.5878C221.594 46.2567 221.393 45.79 221.395 45.1877C221.396 44.5441 221.612 44.0537 222.042 43.7164C222.48 43.3792 223.087 43.2116 223.863 43.2135L225.521 43.2177L225.519 44.2821L224.306 44.2791C223.753 44.2777 223.365 44.3551 223.142 44.5113C222.919 44.6593 222.807 44.8735 222.806 45.1541C222.805 45.3934 222.9 45.5834 223.089 45.7241C223.287 45.8567 223.559 45.9233 223.906 45.9242C224.211 45.925 224.475 45.8555 224.698 45.7158C224.93 45.5678 225.108 45.3785 225.232 45.1478C225.364 44.9088 225.431 44.6532 225.432 44.3809L225.939 44.3822C225.937 45.2238 225.754 45.8876 225.39 46.3735C225.034 46.8512 224.48 47.0891 223.729 47.0872ZM232.696 46.9612L232.637 45.8099L232.656 38.2971L234.03 38.3005L234.008 46.9644L232.696 46.9612ZM230.678 47.1046C230.117 47.1032 229.626 46.97 229.206 46.7049C228.794 46.4315 228.469 46.0512 228.231 45.5637C228.001 45.0763 227.887 44.5067 227.889 43.8548C227.891 43.1947 228.008 42.6257 228.24 42.1477C228.48 41.6614 228.807 41.2868 229.22 41.0238C229.642 40.7526 230.133 40.6176 230.694 40.6191C231.214 40.6204 231.659 40.7576 232.03 41.0308C232.409 41.2958 232.697 41.672 232.894 42.1593C233.09 42.6384 233.188 43.208 233.186 43.8681C233.185 44.52 233.084 45.0891 232.885 45.5754C232.686 46.0617 232.396 46.4406 232.016 46.7119C231.644 46.975 231.198 47.1059 230.678 47.1046ZM231.028 45.843C231.341 45.8438 231.618 45.762 231.858 45.5976C232.106 45.4249 232.296 45.1902 232.429 44.8935C232.57 44.5968 232.641 44.2546 232.642 43.8667C232.643 43.4789 232.573 43.1363 232.434 42.8389C232.303 42.5415 232.113 42.31 231.866 42.1444C231.627 41.9787 231.347 41.8955 231.025 41.8947C230.695 41.8939 230.402 41.9757 230.146 42.1401C229.89 42.3045 229.687 42.535 229.538 42.8317C229.397 43.1284 229.322 43.4706 229.312 43.8584C229.32 44.2462 229.393 44.5889 229.532 44.8863C229.68 45.1837 229.882 45.4193 230.137 45.5933C230.401 45.759 230.698 45.8422 231.028 45.843ZM238.436 47.1241C237.801 47.1225 237.24 46.9849 236.754 46.7114C236.268 46.4296 235.885 46.045 235.606 45.5575C235.335 45.0699 235.2 44.5085 235.202 43.8731C235.203 43.2378 235.341 42.677 235.614 42.1909C235.896 41.7048 236.276 41.3262 236.756 41.0551C237.243 40.7757 237.801 40.6369 238.428 40.6384C239.038 40.64 239.591 40.7899 240.085 41.0881C240.579 41.3782 240.946 41.7958 241.184 42.341L239.895 42.8328C239.764 42.5602 239.562 42.3411 239.29 42.1753C239.018 42.0096 238.709 41.9263 238.363 41.9255C238.024 41.9246 237.723 42.0105 237.458 42.1831C237.194 42.3475 236.987 42.578 236.838 42.8747C236.689 43.1631 236.613 43.4971 236.613 43.8767C236.612 44.2562 236.685 44.5947 236.833 44.8922C236.989 45.1813 237.199 45.4129 237.462 45.5869C237.734 45.7526 238.039 45.8358 238.378 45.8367C238.724 45.8376 239.034 45.7517 239.306 45.5791C239.579 45.3982 239.782 45.1553 239.915 44.8504L241.201 45.3487C240.96 45.9092 240.592 46.3456 240.096 46.6579C239.608 46.9702 239.055 47.1256 238.436 47.1241ZM246.023 46.9945L245.964 45.8309L245.969 43.8135C245.97 43.3927 245.926 43.0419 245.836 42.7611C245.746 42.4803 245.602 42.2654 245.404 42.1164C245.215 41.9674 244.963 41.8925 244.65 41.8917C244.361 41.891 244.105 41.9522 243.882 42.0755C243.659 42.1987 243.472 42.388 243.323 42.6434L242.062 42.1947C242.203 41.9227 242.385 41.6674 242.609 41.4287C242.832 41.1899 243.113 41.0008 243.452 40.8614C243.798 40.722 244.207 40.6529 244.677 40.6541C245.28 40.6556 245.779 40.7682 246.174 40.992C246.578 41.2158 246.878 41.5466 247.075 41.9844C247.272 42.4223 247.37 42.963 247.368 43.6066L247.323 46.9978L246.023 46.9945ZM244.265 47.1387C243.522 47.1368 242.945 46.9703 242.534 46.6392C242.13 46.3082 241.929 45.8415 241.931 45.2391C241.932 44.5955 242.148 44.1051 242.578 43.7679C243.016 43.4306 243.623 43.263 244.399 43.2649L246.057 43.2691L246.054 44.3335L244.841 44.3305C244.289 44.3291 243.901 44.4065 243.677 44.5627C243.454 44.7107 243.342 44.925 243.342 45.2055C243.341 45.4448 243.435 45.6348 243.625 45.7756C243.823 45.9081 244.095 45.9748 244.441 45.9756C244.747 45.9764 245.011 45.9069 245.234 45.7672C245.465 45.6193 245.643 45.4299 245.768 45.1992C245.9 44.9603 245.967 44.7046 245.968 44.4323L246.475 44.4336C246.473 45.2752 246.29 45.939 245.925 46.4249C245.569 46.9026 245.016 47.1405 244.265 47.1387ZM251.016 47.1556C250.603 47.1545 250.224 47.0917 249.878 46.9671C249.531 46.8424 249.235 46.6684 248.988 46.445C248.741 46.2133 248.552 45.9447 248.42 45.6391L249.622 45.1098C249.745 45.3412 249.926 45.5356 250.165 45.6929C250.413 45.8503 250.685 45.9294 250.982 45.9301C251.303 45.9309 251.559 45.878 251.749 45.7712C251.948 45.6561 252.047 45.4996 252.048 45.3016C252.048 45.1118 251.974 44.9672 251.826 44.8678C251.678 44.7602 251.468 44.673 251.195 44.6063L250.614 44.444C250.029 44.294 249.571 44.0577 249.242 43.735C248.913 43.4042 248.749 43.0283 248.75 42.6075C248.751 41.9886 248.951 41.5105 249.347 41.1732C249.753 40.8359 250.331 40.6682 251.081 40.6701C251.461 40.6711 251.807 40.7297 252.121 40.846C252.442 40.9541 252.718 41.1115 252.949 41.3184C253.179 41.517 253.34 41.7526 253.43 42.0251L252.277 42.5421C252.195 42.3356 252.039 42.1784 251.808 42.0705C251.577 41.9545 251.322 41.8961 251.041 41.8953C250.761 41.8946 250.542 41.956 250.385 42.0794C250.228 42.1945 250.149 42.3593 250.148 42.5739C250.148 42.6976 250.218 42.8133 250.358 42.9209C250.498 43.0203 250.7 43.1033 250.964 43.17L251.694 43.3451C252.098 43.4451 252.427 43.6027 252.683 43.8179C252.938 44.0248 253.127 44.2605 253.25 44.5248C253.373 44.7809 253.435 45.041 253.434 45.3051C253.433 45.6764 253.325 46.002 253.11 46.282C252.903 46.5621 252.617 46.78 252.254 46.9359C251.891 47.0835 251.478 47.1567 251.016 47.1556ZM256.992 47.1705C256.34 47.1689 255.841 47.0067 255.495 46.6841C255.158 46.3532 254.99 45.8824 254.991 45.2718L255.007 38.8976L256.381 38.9011L256.366 45.0153C256.365 45.3041 256.431 45.523 256.562 45.6718C256.702 45.8207 256.904 45.8955 257.168 45.8961C257.251 45.8963 257.341 45.8801 257.441 45.8473C257.54 45.8145 257.651 45.7529 257.775 45.6625L258.28 46.7158C258.065 46.8638 257.85 46.9746 257.636 47.0484C257.421 47.1303 257.206 47.1711 256.992 47.1705ZM253.972 42.0141L253.975 40.8259L258.047 40.8361L258.044 42.0243L253.972 42.0141Z" fill="#6D6C75"/>
<path d="M182.766 78.8967C181.71 78.8941 180.775 78.7318 179.96 78.4098C179.144 78.0718 178.481 77.6382 177.971 77.1089C177.46 76.5797 177.117 76.0108 176.943 75.4024L179.441 74.6405C179.632 75.169 179.99 75.6259 180.517 76.0112C181.061 76.3965 181.732 76.5981 182.532 76.6161C183.444 76.6183 184.164 76.4362 184.693 76.0695C185.238 75.6868 185.512 75.1835 185.513 74.5595C185.514 74.0155 185.284 73.5589 184.82 73.1898C184.373 72.8207 183.774 72.5392 183.022 72.3453L181.176 71.8848C180.456 71.691 179.817 71.4094 179.258 71.0401C178.699 70.6547 178.26 70.1896 177.941 69.6448C177.623 69.084 177.464 68.4276 177.466 67.6756C177.469 66.2677 177.928 65.1728 178.842 64.391C179.772 63.5933 181.093 63.1966 182.805 63.2008C183.781 63.2032 184.629 63.3573 185.348 63.663C186.067 63.9528 186.666 64.3623 187.145 64.8915C187.624 65.4047 187.974 65.9815 188.197 66.6221L185.723 67.432C185.516 66.8875 185.149 66.4306 184.622 66.0613C184.095 65.676 183.447 65.4824 182.679 65.4805C181.879 65.4785 181.247 65.669 180.782 66.0518C180.333 66.4187 180.108 66.9302 180.106 67.5862C180.105 68.1461 180.28 68.5786 180.631 68.8834C180.998 69.1884 181.478 69.4215 182.069 69.583L183.94 70.0436C185.299 70.3829 186.346 70.9615 187.08 71.7793C187.83 72.5972 188.204 73.4941 188.201 74.4701C188.199 75.3341 187.981 76.1016 187.548 76.7725C187.13 77.4275 186.521 77.946 185.72 78.328C184.919 78.71 183.934 78.8996 182.766 78.8967ZM181.631 81.9179L181.641 77.958L183.945 77.9636L183.935 81.9236L181.631 81.9179ZM181.673 64.686L181.683 60.726L183.987 60.7317L183.977 64.6917L181.673 64.686ZM193.27 78.5866L190.561 77.3319C190.562 76.8359 190.692 76.3242 190.949 75.7969C191.206 75.2535 191.567 74.7103 192.033 74.1674C192.514 73.6246 193.075 73.1141 193.717 72.6357L196.65 70.5309C197.018 70.2758 197.355 69.9806 197.66 69.6454C197.981 69.3102 198.238 68.9588 198.431 68.5913C198.624 68.2078 198.72 67.832 198.721 67.464C198.723 67 198.604 66.5757 198.365 66.1911C198.141 65.8066 197.814 65.5018 197.383 65.2767C196.967 65.0517 196.456 64.9384 195.848 64.9369C195.304 64.9356 194.815 65.0464 194.383 65.2693C193.966 65.4763 193.622 65.7554 193.349 66.1068C193.076 66.4581 192.883 66.8416 192.77 67.2573L189.915 66.7223C190.077 65.9547 190.415 65.2435 190.928 64.5888C191.458 63.9181 192.131 63.3838 192.948 62.9858C193.781 62.5878 194.726 62.3901 195.782 62.3927C196.966 62.3957 197.989 62.6142 198.852 63.0483C199.731 63.4825 200.402 64.0841 200.864 64.8533C201.342 65.6064 201.58 66.471 201.577 67.447C201.575 68.439 201.301 69.3343 200.755 70.1329C200.225 70.9156 199.479 71.6659 198.517 72.3835L195.824 74.3689C195.376 74.6878 194.951 75.0547 194.55 75.4697C194.165 75.8688 193.852 76.324 193.61 76.8354C193.385 77.3469 193.272 77.9306 193.27 78.5866ZM190.556 79.4678L190.561 77.3319L192.626 77.001L201.77 77.0235L201.764 79.4955L190.556 79.4678Z" fill="#0A0A0A"/>
<path d="M204.052 81.5092L207.388 71.5454L208.528 71.5482L205.216 81.512L204.052 81.5092ZM209.537 82.9147L209.557 74.5147L210.625 74.5173L210.695 75.6215L210.677 82.9175L209.537 82.9147ZM212.65 80.6664C212.146 80.6651 211.707 80.532 211.331 80.2671C210.964 80.0022 210.681 79.6335 210.482 79.161C210.283 78.6885 210.185 78.1403 210.186 77.5163C210.188 76.8843 210.289 76.3365 210.49 75.873C210.691 75.4015 210.976 75.0342 211.345 74.7711C211.721 74.508 212.162 74.3771 212.666 74.3784C213.202 74.3797 213.673 74.5129 214.081 74.7779C214.488 75.0429 214.803 75.4116 215.026 75.8842C215.257 76.3488 215.372 76.897 215.37 77.529C215.368 78.153 215.251 78.7008 215.018 79.1722C214.793 79.6436 214.476 80.0108 214.067 80.2738C213.659 80.5368 213.186 80.6677 212.65 80.6664ZM212.377 79.6337C212.737 79.6346 213.053 79.5473 213.325 79.372C213.598 79.1887 213.811 78.9412 213.963 78.6296C214.124 78.31 214.205 77.9422 214.206 77.5262C214.207 77.1102 214.132 76.746 213.981 76.4336C213.83 76.1132 213.618 75.8647 213.347 75.6881C213.075 75.5034 212.759 75.4106 212.399 75.4097C212.071 75.4089 211.775 75.5002 211.511 75.6835C211.254 75.8589 211.054 76.1064 210.909 76.4261C210.764 76.7457 210.691 77.1095 210.69 77.5175C210.689 77.9335 210.76 78.3017 210.903 78.622C211.047 78.9344 211.246 79.1829 211.501 79.3675C211.757 79.5441 212.049 79.6329 212.377 79.6337ZM219.259 80.6826C218.675 80.6812 218.16 80.5479 217.712 80.2828C217.265 80.0097 216.914 79.6368 216.659 79.1642C216.404 78.6916 216.278 78.1473 216.279 77.5313C216.281 76.9153 216.41 76.3716 216.667 75.9002C216.924 75.4289 217.277 75.0617 217.726 74.7988C218.182 74.528 218.703 74.3932 219.287 74.3947C219.831 74.396 220.31 74.5372 220.726 74.8182C221.149 75.0913 221.476 75.4841 221.707 75.9966C221.946 76.5012 222.064 77.0975 222.062 77.7855L220.922 77.7827C220.932 77.2707 220.869 76.8386 220.734 76.4862C220.606 76.1339 220.415 75.8695 220.16 75.6928C219.912 75.5082 219.612 75.4155 219.26 75.4146C218.884 75.4137 218.56 75.5009 218.288 75.6762C218.015 75.8436 217.803 76.087 217.65 76.4067C217.505 76.7183 217.432 77.1021 217.431 77.5581C217.43 77.9821 217.513 78.3503 217.68 78.6627C217.848 78.9671 218.075 79.2077 218.362 79.3844C218.65 79.5531 218.978 79.6379 219.346 79.6388C219.738 79.6398 220.062 79.5486 220.319 79.3652C220.583 79.1819 220.792 78.9464 220.944 78.6588L221.963 79.1293C221.802 79.4409 221.594 79.7164 221.337 79.9557C221.081 80.1871 220.776 80.3664 220.424 80.4935C220.079 80.6206 219.691 80.6837 219.259 80.6826ZM217.022 77.7731L217.037 76.8371L221.429 76.848L221.426 77.784L217.022 77.7731ZM223.886 77.322C223.887 76.674 224.013 76.1463 224.262 75.7389C224.511 75.3315 224.831 75.0283 225.224 74.8293C225.616 74.6303 226.029 74.5313 226.461 74.5323L226.458 75.6123C226.098 75.6115 225.754 75.6666 225.426 75.7778C225.105 75.881 224.841 76.0564 224.632 76.3038C224.432 76.5434 224.331 76.8711 224.33 77.2871L223.886 77.322ZM223.182 80.5483L223.197 74.5483L224.337 74.5511L224.322 80.5511L223.182 80.5483ZM229.513 80.7079C229.089 80.7068 228.709 80.6419 228.374 80.5131C228.046 80.3843 227.766 80.2116 227.535 79.995C227.311 79.7785 227.144 79.534 227.033 79.2618L228.018 78.8322C228.145 79.0805 228.337 79.285 228.592 79.4456C228.848 79.6062 229.132 79.6869 229.444 79.6877C229.788 79.6886 230.072 79.6253 230.296 79.4978C230.52 79.3704 230.633 79.1906 230.633 78.9586C230.634 78.7346 230.55 78.5584 230.383 78.43C230.215 78.3016 229.971 78.197 229.651 78.1162L229.088 77.9708C228.528 77.8174 228.093 77.5884 227.781 77.2836C227.478 76.9789 227.327 76.6345 227.328 76.2505C227.329 75.6665 227.519 75.215 227.895 74.8959C228.272 74.5768 228.829 74.4182 229.565 74.42C229.925 74.4209 230.252 74.4737 230.548 74.5784C230.852 74.6832 231.108 74.8318 231.315 75.0243C231.531 75.2168 231.682 75.4452 231.769 75.7094L230.808 76.1391C230.713 75.8988 230.549 75.7224 230.318 75.6098C230.086 75.4893 229.814 75.4286 229.502 75.4278C229.182 75.4271 228.93 75.4984 228.746 75.642C228.561 75.7775 228.469 75.9693 228.468 76.2173C228.468 76.3533 228.543 76.4855 228.695 76.6139C228.855 76.7343 229.087 76.8348 229.39 76.9156L230.038 77.0732C230.43 77.1701 230.753 77.3189 231.009 77.5196C231.264 77.7122 231.456 77.9327 231.583 78.181C231.711 78.4213 231.774 78.6734 231.773 78.9374C231.773 79.2974 231.672 79.6132 231.471 79.8847C231.278 80.1482 231.01 80.3516 230.666 80.4947C230.329 80.6379 229.945 80.7089 229.513 80.7079ZM235.667 80.723C235.067 80.7216 234.539 80.5883 234.084 80.3231C233.629 80.05 233.269 79.6771 233.007 79.2045C232.752 78.7319 232.625 78.1875 232.627 77.5715C232.628 76.9555 232.757 76.4119 233.015 75.9405C233.272 75.4691 233.629 75.102 234.085 74.8391C234.542 74.5683 235.066 74.4335 235.658 74.435C236.25 74.4365 236.774 74.5737 237.229 74.8469C237.685 75.112 238.04 75.4809 238.295 75.9535C238.549 76.4261 238.676 76.9704 238.675 77.5864C238.673 78.2024 238.544 78.7461 238.287 79.2175C238.029 79.6889 237.673 80.06 237.216 80.3309C236.767 80.5937 236.251 80.7245 235.667 80.723ZM235.669 79.679C236.029 79.6799 236.35 79.5927 236.63 79.4174C236.911 79.2341 237.127 78.9866 237.28 78.675C237.441 78.3634 237.522 77.9996 237.523 77.5836C237.524 77.1676 237.445 76.8034 237.285 76.491C237.134 76.1786 236.915 75.9341 236.627 75.7574C236.34 75.5727 236.016 75.4799 235.656 75.479C235.288 75.4781 234.964 75.5693 234.683 75.7526C234.403 75.9279 234.182 76.1714 234.021 76.483C233.861 76.7946 233.78 77.1584 233.779 77.5744C233.778 77.9904 233.857 78.3546 234.016 78.667C234.175 78.9794 234.399 79.2279 234.686 79.4126C234.974 79.5893 235.301 79.6781 235.669 79.679ZM239.916 80.5895L239.931 74.5895L240.999 74.5922L241.068 75.6963L241.056 80.5923L239.916 80.5895ZM244.068 80.5997L244.076 77.5277L245.217 77.1705L245.208 80.6025L244.068 80.5997ZM244.076 77.5277C244.077 76.9837 244.014 76.5716 243.887 76.2913C243.767 76.003 243.596 75.8026 243.372 75.69C243.157 75.5775 242.905 75.5169 242.617 75.5081C242.129 75.5069 241.748 75.678 241.475 76.0213C241.203 76.3647 241.065 76.8483 241.064 77.4723L240.572 77.4711C240.573 76.8391 240.667 76.2993 240.852 75.8518C241.037 75.3962 241.302 75.0489 241.646 74.8097C241.999 74.5706 242.419 74.4517 242.907 74.4529C243.627 74.4546 244.191 74.68 244.598 75.129C245.013 75.57 245.219 76.2506 245.217 77.1705L244.076 77.5277Z" fill="#73707D"/>
<path d="M264.432 14.2064L99.796 13.794C90.0308 13.7696 82.0947 21.6661 82.0702 31.4313L81.9302 87.3492C81.9057 97.1145 89.8022 105.051 99.5674 105.075L264.204 105.487C273.969 105.512 281.905 97.6154 281.93 87.8501L282.07 31.9322C282.094 22.1669 274.198 14.2308 264.432 14.2064Z" stroke="#EEEEEE"/>
</g>
<defs>
<filter id="filter0_ddddd_410_23" x="-36.5698" y="0.293945" width="326.139" height="179.693" filterUnits="userSpaceOnUse" color-interpolation-filters="sRGB">
<feFlood flood-opacity="0" result="BackgroundImageFix"/>
<feColorMatrix in="SourceAlpha" type="matrix" values="0 0 0 0 0 0 0 0 0 0 0 0 0 0 0 0 0 0 127 0" result="hardAlpha"/>
<feOffset/>
<feColorMatrix type="matrix" values="0 0 0 0 0.690196 0 0 0 0 0.658824 0 0 0 0 0.839216 0 0 0 0.1 0"/>
<feBlend mode="normal" in2="BackgroundImageFix" result="effect1_dropShadow_410_23"/>
<feColorMatrix in="SourceAlpha" type="matrix" values="0 0 0 0 0 0 0 0 0 0 0 0 0 0 0 0 0 0 127 0" result="hardAlpha"/>
<feOffset dx="-5" dy="2"/>
<feGaussianBlur stdDeviation="6"/>
<feColorMatrix type="matrix" values="0 0 0 0 0.690196 0 0 0 0 0.658824 0 0 0 0 0.839216 0 0 0 0.1 0"/>
<feBlend mode="normal" in2="effect1_dropShadow_410_23" result="effect2_dropShadow_410_23"/>
<feColorMatrix in="SourceAlpha" type="matrix" values="0 0 0 0 0 0 0 0 0 0 0 0 0 0 0 0 0 0 127 0" result="hardAlpha"/>
<feOffset dx="-20" dy="10"/>
<feGaussianBlur stdDeviation="11.5"/>
<feColorMatrix type="matrix" values="0 0 0 0 0.690196 0 0 0 0 0.658824 0 0 0 0 0.839216 0 0 0 0.09 0"/>
<feBlend mode="normal" in2="effect2_dropShadow_410_23" result="effect3_dropShadow_410_23"/>
<feColorMatrix in="SourceAlpha" type="matrix" values="0 0 0 0 0 0 0 0 0 0 0 0 0 0 0 0 0 0 127 0" result="hardAlpha"/>
<feOffset dx="-46" dy="21"/>
<feGaussianBlur stdDeviation="15.5"/>
<feColorMatrix type="matrix" values="0 0 0 0 0.690196 0 0 0 0 0.658824 0 0 0 0 0.839216 0 0 0 0.05 0"/>
<feBlend mode="normal" in2="effect3_dropShadow_410_23" result="effect4_dropShadow_410_23"/>
<feColorMatrix in="SourceAlpha" type="matrix" values="0 0 0 0 0 0 0 0 0 0 0 0 0 0 0 0 0 0 127 0" result="hardAlpha"/>
<feOffset dx="-82" dy="38"/>
<feGaussianBlur stdDeviation="18"/>
<feColorMatrix type="matrix" values="0 0 0 0 0.690196 0 0 0 0 0.658824 0 0 0 0 0.839216 0 0 0 0.01 0"/>
<feBlend mode="normal" in2="effect4_dropShadow_410_23" result="effect5_dropShadow_410_23"/>
<feBlend mode="normal" in="SourceGraphic" in2="effect5_dropShadow_410_23" result="shape"/>
</filter>
</defs>
</svg>
