<svg width="335" height="209" viewBox="0 0 335 209" fill="none" xmlns="http://www.w3.org/2000/svg">
<g filter="url(#filter0_ddddd_242_3054)">
<rect x="132.779" y="10.8563" width="200" height="91.3631" rx="17.6816" transform="rotate(10.2998 132.779 10.8563)" fill="white"/>
<rect x="145.661" y="29.4593" width="59.3631" height="59.3631" rx="29.6816" transform="rotate(10.2998 145.661 29.4593)" fill="#5E48DB"/>
<path d="M161.364 70.4028L161.372 70.4134L161.379 70.4237C162.17 71.5059 163.676 71.7924 164.802 71.0127L167.972 68.8181C169.119 68.0241 169.375 66.4655 168.584 65.3462C168.518 65.2521 168.451 65.1593 168.391 65.0773L168.388 65.0728C168.324 64.9861 168.27 64.9109 168.219 64.8381C167.622 63.9569 167.078 63.0834 166.572 62.2272C166.111 61.4255 165.82 60.8113 165.669 60.3821C165.661 60.3374 165.652 60.2987 165.646 60.271L165.645 60.2681L165.643 60.2596C165.639 60.2405 165.635 60.2241 165.632 60.2092L166.876 59.3117C167.332 58.9954 167.738 58.6449 168.056 58.2655C168.423 57.8485 168.675 57.359 168.773 56.8183C168.852 56.3807 168.819 55.9256 168.723 55.5033C168.631 55.0725 168.475 54.6334 168.256 54.1716L165.758 48.8276C165.487 48.2327 165.082 47.7789 164.606 47.4439C164.148 47.1131 163.619 46.8981 163.078 46.7997C161.704 46.5501 160.348 46.9062 159.082 47.7658C158.071 48.4246 157.269 49.2374 156.68 50.1874C156.103 51.1083 155.715 52.1393 155.514 53.2408C155.213 54.9013 155.286 56.679 155.688 58.5569L155.688 58.5569L155.691 58.5673C156.108 60.4165 156.792 62.3133 157.706 64.2365L157.706 64.2365L157.709 64.2417C158.634 66.1601 159.721 68.0289 160.967 69.848L160.97 69.852C161.042 69.9558 161.114 70.0544 161.178 70.1426L161.181 70.1464C161.248 70.2384 161.307 70.3197 161.364 70.4028Z" fill="#F9B732" stroke="black" stroke-width="2"/>
<path d="M182.76 77.4785L182.764 77.4718L182.768 77.4649C183.043 76.9886 183.232 76.4732 183.327 75.9517C183.428 75.3951 183.396 74.8858 183.297 74.4006L183.293 74.3839L183.289 74.3674C183.147 73.7727 182.837 73.2636 182.4 72.8245L178.224 68.5496L178.217 68.5424L178.21 68.5353C177.86 68.1915 177.506 67.8929 177.135 67.6556C176.745 67.4069 176.345 67.2418 175.925 67.1655C175.372 67.065 174.844 67.1307 174.334 67.3217C173.848 67.4773 173.369 67.7436 172.904 68.0649L171.665 68.9109C171.654 68.9035 171.643 68.8957 171.631 68.8873L171.623 68.8816L171.621 68.8804C171.595 68.8624 171.561 68.8383 171.523 68.8132C171.306 68.6403 171.036 68.3901 170.727 68.0565L170.138 67.4205L169.425 67.9142L163.823 71.7933L162.925 72.4151L163.623 73.2548C164.096 73.8241 164.602 74.365 165.085 74.8815L165.094 74.8915L165.094 74.8916L165.101 74.8989C166.581 76.4513 168.132 77.7613 169.74 78.8205C171.369 79.8938 173.011 80.5894 174.645 80.8864C175.716 81.081 176.755 81.0714 177.753 80.8821L177.766 80.8845L177.958 80.8436C179.071 80.6074 180.091 80.1139 181.048 79.3804L181.048 79.38C181.632 78.9314 182.107 78.4269 182.501 77.8775C182.609 77.7328 182.694 77.5901 182.753 77.4905L182.76 77.4785Z" fill="#F9B732" stroke="black" stroke-width="2"/>
<path d="M222.145 57.0516L222.374 55.7883L224.204 56.1208C224.598 56.1924 224.945 56.1172 225.245 55.8954C225.546 55.6735 225.735 55.3501 225.812 54.925C225.865 54.6338 225.844 54.3698 225.749 54.1329C225.663 53.8897 225.517 53.6843 225.312 53.5169C225.106 53.3495 224.853 53.2425 224.553 53.196L222.9 52.8957L223.127 51.6441L224.806 51.937C225.373 52.04 225.851 52.2489 226.241 52.5637C226.633 52.8706 226.913 53.2509 227.083 53.7046C227.254 54.1503 227.291 54.6408 227.193 55.1761C227.099 55.6956 226.9 56.1392 226.598 56.507C226.295 56.8748 225.918 57.1396 225.466 57.3014C225.023 57.4567 224.534 57.4857 223.998 57.3884L222.145 57.0516ZM220.386 59.6835L221.888 51.4189L223.257 51.6678L221.755 59.9324L220.386 59.6835ZM227.16 60.9145L228.669 52.5415L229.992 52.7818L228.482 61.1548L227.16 60.9145ZM231.162 61.6419L231.711 58.6194L233.098 58.5055L232.485 61.8822L231.162 61.6419ZM231.711 58.6194C231.797 58.1471 231.808 57.775 231.744 57.5031C231.681 57.2234 231.56 57.0144 231.382 56.8764C231.212 56.7397 231 56.6485 230.749 56.6027C230.301 56.5133 229.929 56.596 229.63 56.8507C229.34 57.1069 229.144 57.5145 229.042 58.0733L228.534 57.981C228.647 57.3592 228.835 56.8444 229.096 56.4365C229.366 56.0222 229.691 55.7316 230.071 55.5649C230.453 55.3903 230.875 55.3451 231.34 55.4295C232.048 55.5583 232.559 55.8788 232.873 56.3911C233.188 56.8955 233.263 57.6003 233.098 58.5055L231.711 58.6194ZM236.514 62.7607C235.923 62.6534 235.419 62.4277 235.002 62.0836C234.594 61.733 234.303 61.3019 234.127 60.7903C233.952 60.2787 233.919 59.7199 234.03 59.1138C234.14 58.5078 234.363 57.9954 234.699 57.5768C235.043 57.1596 235.467 56.8626 235.971 56.6858C236.476 56.5012 237.024 56.4625 237.614 56.5698C238.205 56.677 238.704 56.906 239.112 57.2565C239.521 57.5993 239.809 58.0257 239.977 58.5359C240.152 59.0475 240.185 59.6063 240.075 60.2124C239.964 60.8184 239.741 61.3308 239.405 61.7494C239.069 62.168 238.648 62.4697 238.143 62.6543C237.639 62.8311 237.096 62.8666 236.514 62.7607ZM236.735 61.5446C237.057 61.6033 237.359 61.5768 237.639 61.4651C237.921 61.3456 238.158 61.161 238.35 60.9112C238.543 60.6536 238.673 60.3399 238.74 59.9699C238.808 59.6 238.792 59.2637 238.692 58.961C238.602 58.6519 238.445 58.3957 238.222 58.1926C238 57.9815 237.724 57.8459 237.393 57.7858C237.063 57.7258 236.757 57.7515 236.477 57.8632C236.196 57.9748 235.959 58.1595 235.766 58.4171C235.573 58.6747 235.443 58.9885 235.376 59.3584C235.308 59.7284 235.32 60.0679 235.41 60.377C235.509 60.6797 235.67 60.9365 235.892 61.1476C236.123 61.3522 236.404 61.4846 236.735 61.5446ZM240.684 63.3723L241.757 57.4689L242.997 57.6942L242.882 58.7955L242.006 63.6126L240.684 63.3723ZM244.687 64.0996L245.236 61.0771L246.623 60.9632L246.009 64.3399L244.687 64.0996ZM245.236 61.0771C245.322 60.6048 245.332 60.2328 245.268 59.9609C245.213 59.6825 245.096 59.4743 244.918 59.3362C244.748 59.1996 244.533 59.1076 244.273 59.0604C243.834 58.9725 243.465 59.0559 243.166 59.3106C242.868 59.5654 242.668 59.9722 242.566 60.531L242.071 60.4409C242.184 59.8191 242.371 59.3043 242.632 58.8964C242.894 58.4806 243.216 58.1894 243.596 58.0226C243.977 57.848 244.4 57.8029 244.864 57.8873C245.58 58.0174 246.091 58.3379 246.397 58.8488C246.712 59.3532 246.787 60.058 246.623 60.9632L245.236 61.0771ZM249.956 65.2035C249.381 65.0991 248.893 64.8762 248.491 64.5349C248.099 64.1872 247.816 63.7576 247.64 63.246C247.473 62.7358 247.444 62.1777 247.554 61.5716C247.664 60.9655 247.891 60.4539 248.236 60.0367C248.58 59.6195 249 59.3218 249.496 59.1436C250.001 58.9589 250.545 58.9195 251.127 59.0254C251.654 59.1212 252.102 59.3448 252.469 59.6961C252.845 60.0409 253.113 60.4921 253.272 61.0495C253.431 61.6069 253.446 62.2398 253.317 62.9482L251.983 62.7057C252.076 62.1941 252.089 61.7615 252.023 61.4081C251.965 61.056 251.837 60.7805 251.637 60.5816C251.447 60.3763 251.19 60.2443 250.867 60.1857C250.529 60.1242 250.224 60.146 249.953 60.2512C249.682 60.3564 249.457 60.5432 249.278 60.8115C249.1 61.072 248.972 61.4187 248.894 61.8516C248.824 62.2373 248.838 62.5815 248.938 62.8841C249.045 63.1882 249.215 63.4387 249.448 63.6354C249.69 63.8257 249.972 63.9502 250.295 64.0089C250.649 64.0732 250.954 64.0474 251.211 63.9315C251.469 63.8077 251.684 63.6313 251.856 63.4023L252.978 64.1428C252.755 64.4276 252.493 64.6645 252.19 64.8534C251.895 65.0437 251.559 65.1697 251.182 65.2313C250.813 65.2943 250.404 65.285 249.956 65.2035ZM248.37 62.0492L248.561 60.9984L252.811 61.7708L252.62 62.8216L248.37 62.0492ZM260.499 67.1195C259.704 66.975 259.028 66.6652 258.472 66.1902C257.926 65.7086 257.533 65.1169 257.295 64.415C257.066 63.7066 257.027 62.9353 257.179 62.1009C257.33 61.2666 257.637 60.5621 258.099 59.9875C258.571 59.4065 259.146 58.9907 259.826 58.7402C260.507 58.4818 261.245 58.4249 262.04 58.5693C262.576 58.6666 263.061 58.8565 263.498 59.1391C263.936 59.4138 264.305 59.7533 264.606 60.1576C264.914 60.5633 265.126 61.0083 265.241 61.4927L263.897 61.773C263.81 61.4481 263.665 61.1494 263.463 60.8768C263.269 60.5978 263.031 60.3674 262.747 60.1857C262.463 60.0039 262.151 59.8823 261.813 59.8208C261.293 59.7264 260.805 59.7719 260.349 59.9573C259.9 60.1441 259.516 60.4443 259.197 60.8579C258.888 61.265 258.679 61.7638 258.572 62.3541C258.464 62.9445 258.483 63.4886 258.629 63.9866C258.782 64.4861 259.04 64.9028 259.402 65.237C259.772 65.5725 260.22 65.7882 260.748 65.8841C261.094 65.947 261.429 65.9387 261.752 65.8593C262.085 65.7734 262.392 65.6299 262.672 65.4288C262.96 65.2291 263.205 64.9808 263.405 64.6839L264.564 65.419C264.283 65.8476 263.929 66.2101 263.501 66.5063C263.074 66.7947 262.603 66.9937 262.087 67.1032C261.571 67.2127 261.042 67.2182 260.499 67.1195ZM268.809 68.4832L268.951 67.3627L269.301 65.4382C269.374 65.0368 269.392 64.6944 269.354 64.411C269.316 64.1277 269.215 63.898 269.052 63.722C268.897 63.5474 268.669 63.433 268.37 63.3786C268.095 63.3285 267.84 63.3432 267.606 63.4227C267.372 63.5021 267.162 63.651 266.976 63.8692L265.849 63.2253C266.03 62.9899 266.248 62.7774 266.502 62.5877C266.756 62.3981 267.056 62.2657 267.403 62.1905C267.758 62.1168 268.16 62.1207 268.608 62.2022C269.183 62.3067 269.64 62.4995 269.979 62.7806C270.326 63.0632 270.556 63.4303 270.669 63.8818C270.782 64.3333 270.783 64.866 270.672 65.4799L270.048 68.7085L268.809 68.4832ZM267.106 68.3203C266.398 68.1915 265.876 67.934 265.539 67.5476C265.211 67.1627 265.099 66.6829 265.203 66.1083C265.315 65.4944 265.605 65.0632 266.072 64.8149C266.548 64.568 267.156 64.5118 267.896 64.6462L269.478 64.9337L269.294 65.9491L268.137 65.7388C267.609 65.643 267.226 65.6506 266.986 65.7615C266.748 65.8645 266.604 66.0499 266.556 66.3175C266.514 66.5458 266.572 66.7432 266.728 66.91C266.894 67.0702 267.143 67.1804 267.473 67.2405C267.765 67.2934 268.029 67.2723 268.265 67.1771C268.512 67.0754 268.714 66.9252 268.872 66.7262C269.039 66.5209 269.147 66.2883 269.194 66.0285L269.678 66.1165C269.532 66.9194 269.244 67.5215 268.813 67.923C268.392 68.318 267.823 68.4504 267.106 68.3203ZM271.423 68.9583L272.925 60.6937L274.247 60.934L272.745 69.1986L271.423 68.9583ZM274.213 69.4654L275.715 61.2007L277.037 61.441L275.535 69.7057L274.213 69.4654Z" fill="#73707D"/>
<path d="M220.272 93.2613C219.233 93.0725 218.341 92.7477 217.595 92.287C216.852 91.8105 216.276 91.2667 215.867 90.6557C215.458 90.0446 215.221 89.4243 215.156 88.7946L217.749 88.4853C217.844 89.0391 218.117 89.5521 218.567 90.0243C219.034 90.4994 219.659 90.8164 220.444 90.9752C221.341 91.1382 222.082 91.0859 222.668 90.8183C223.271 90.5377 223.629 90.0905 223.741 89.4766C223.838 88.9413 223.691 88.4512 223.301 88.0062C222.926 87.564 222.385 87.1812 221.68 86.8578L219.943 86.0787C219.269 85.7611 218.689 85.3712 218.204 84.909C217.722 84.431 217.372 83.8958 217.154 83.3034C216.94 82.6952 216.9 82.0211 217.034 81.2813C217.286 79.8959 217.931 78.8991 218.968 78.2909C220.024 77.6697 221.394 77.5122 223.079 77.8183C224.039 77.9928 224.846 78.294 225.5 78.7218C226.157 79.1339 226.674 79.6426 227.052 80.248C227.433 80.8375 227.676 81.4672 227.782 82.1369L225.204 82.4978C225.097 81.9253 224.816 81.4109 224.363 80.9544C223.912 80.4822 223.309 80.1774 222.553 80.0401C221.766 79.897 221.11 79.9729 220.585 80.2678C220.078 80.5497 219.766 81.0134 219.649 81.6589C219.549 82.2098 219.645 82.6663 219.936 83.0284C220.244 83.3933 220.675 83.7074 221.229 83.9707L222.989 84.754C224.267 85.3278 225.195 86.0819 225.773 87.0164C226.367 87.9537 226.577 88.9025 226.403 89.8627C226.248 90.7128 225.898 91.4298 225.353 92.0137C224.827 92.5848 224.135 92.9877 223.28 93.2225C222.424 93.4572 221.421 93.4702 220.272 93.2613ZM218.622 96.0349L219.33 92.1387L221.597 92.5507L220.888 96.4469L218.622 96.0349ZM221.703 79.0806L222.411 75.1844L224.678 75.5964L223.97 79.4926L221.703 79.0806ZM233.407 96.5022C232.683 96.3706 231.963 96.126 231.248 95.7682C230.551 95.3976 229.929 94.9269 229.382 94.3559C228.838 93.7692 228.465 93.0916 228.264 92.3231L230.859 91.8679C231.162 92.5247 231.565 93.037 232.067 93.4047C232.573 93.7568 233.116 93.9857 233.699 94.0915C234.628 94.2603 235.433 94.1222 236.116 93.6771C236.801 93.2162 237.229 92.5214 237.397 91.5926C237.56 90.6953 237.412 89.9039 236.951 89.2185C236.49 88.533 235.803 88.1073 234.89 87.9414C234.355 87.8441 233.829 87.8706 233.314 88.0209C232.815 88.1741 232.409 88.3931 232.097 88.6779L229.716 87.6842L232.259 78.9257L241.398 80.5865L240.947 83.0659L232.139 81.4652L232.242 79.0202L234.958 79.5137L232.181 88.3516L230.543 87.8344C230.789 87.5539 231.09 87.2834 231.447 87.0229C231.821 86.7495 232.255 86.5112 232.747 86.308C233.24 86.1047 233.769 85.9651 234.336 85.8892C234.903 85.8133 235.499 85.8405 236.126 85.9707C237.071 86.1423 237.881 86.5172 238.556 87.0953C239.232 87.6734 239.72 88.3882 240.02 89.2397C240.324 90.0754 240.385 90.9892 240.205 91.9809C240.005 93.0829 239.577 94.0052 238.922 94.748C238.282 95.4937 237.486 96.0239 236.535 96.3388C235.583 96.6538 234.541 96.7082 233.407 96.5022Z" fill="#0A0A0A"/>
<path d="M240.763 99.5873L245.805 90.3682L246.927 90.5721L241.909 99.7954L240.763 99.5873ZM246.285 99.5662L247.357 93.6629L248.408 93.8539L248.282 94.9529L247.406 99.77L246.285 99.5662ZM250.37 100.309L250.919 97.2861L252.105 97.1358L251.491 100.512L250.37 100.309ZM254.455 101.051L255.004 98.0285L256.178 97.876L255.564 101.253L254.455 101.051ZM250.919 97.2861C251.016 96.7509 251.027 96.3341 250.951 96.0357C250.884 95.7309 250.751 95.5034 250.551 95.3531C250.358 95.2043 250.121 95.1002 249.839 95.0408C249.359 94.9536 248.954 95.0549 248.625 95.3447C248.296 95.6345 248.076 96.0864 247.964 96.7003L247.48 96.6123C247.593 95.9905 247.78 95.4757 248.041 95.0678C248.304 94.6521 248.626 94.3569 249.007 94.1822C249.396 94.0091 249.831 93.9661 250.311 94.0533C251.02 94.1821 251.534 94.5033 251.856 95.0171C252.186 95.5244 252.269 96.2306 252.105 97.1358L250.919 97.2861ZM255.004 98.0285C255.101 97.4933 255.112 97.0765 255.036 96.7781C254.962 96.4719 254.828 96.2443 254.636 96.0955C254.443 95.9467 254.206 95.8426 253.924 95.7833C253.444 95.696 253.039 95.7973 252.71 96.0871C252.381 96.3769 252.161 96.8288 252.049 97.4427L251.565 97.3548C251.678 96.7329 251.865 96.2181 252.126 95.8102C252.389 95.3945 252.711 95.0993 253.092 94.9247C253.481 94.7515 253.916 94.7085 254.396 94.7958C255.105 94.9245 255.619 95.2457 255.941 95.7595C256.271 96.2668 256.351 96.9723 256.178 97.876L255.004 98.0285ZM257.067 101.526L258.163 95.6267L259.273 95.8284L258.188 101.73L257.067 101.526ZM258.934 94.4739C258.753 94.441 258.607 94.3455 258.498 94.1874C258.39 94.0214 258.352 93.8479 258.385 93.6668C258.419 93.4779 258.515 93.3327 258.672 93.231C258.83 93.1215 258.999 93.0833 259.18 93.1162C259.369 93.1505 259.515 93.246 259.616 93.4027C259.727 93.5529 259.765 93.7225 259.731 93.9114C259.698 94.0925 259.602 94.2417 259.442 94.359C259.292 94.4699 259.123 94.5082 258.934 94.4739ZM259.832 102.028L260.905 96.125L261.956 96.316L261.829 97.4151L260.954 102.232L259.832 102.028ZM263.917 102.771L264.467 99.7482L265.653 99.5979L265.039 102.975L263.917 102.771ZM264.467 99.7482C264.564 99.213 264.574 98.7962 264.499 98.4978C264.432 98.193 264.299 97.9655 264.098 97.8152C263.906 97.6664 263.669 97.5623 263.387 97.503C262.906 97.4157 262.502 97.517 262.173 97.8068C261.844 98.0966 261.623 98.5485 261.512 99.1624L261.028 99.0745C261.141 98.4527 261.328 97.9378 261.589 97.5299C261.851 97.1142 262.173 96.819 262.555 96.6444C262.944 96.4712 263.379 96.4282 263.859 96.5155C264.567 96.6442 265.082 96.9655 265.403 97.4792C265.734 97.9865 265.817 98.6927 265.653 99.5979L264.467 99.7482Z" fill="#73707D"/>
<rect x="132.779" y="10.8563" width="200" height="91.3631" rx="17.6816" transform="rotate(10.2998 132.779 10.8563)" stroke="#EEEEEE"/>
</g>
<defs>
<filter id="filter0_ddddd_242_3054" x="-1.55615" y="-2.14368" width="338.113" height="212.651" filterUnits="userSpaceOnUse" color-interpolation-filters="sRGB">
<feFlood flood-opacity="0" result="BackgroundImageFix"/>
<feColorMatrix in="SourceAlpha" type="matrix" values="0 0 0 0 0 0 0 0 0 0 0 0 0 0 0 0 0 0 127 0" result="hardAlpha"/>
<feOffset/>
<feColorMatrix type="matrix" values="0 0 0 0 0.690196 0 0 0 0 0.658824 0 0 0 0 0.839216 0 0 0 0.1 0"/>
<feBlend mode="normal" in2="BackgroundImageFix" result="effect1_dropShadow_242_3054"/>
<feColorMatrix in="SourceAlpha" type="matrix" values="0 0 0 0 0 0 0 0 0 0 0 0 0 0 0 0 0 0 127 0" result="hardAlpha"/>
<feOffset dx="-5" dy="2"/>
<feGaussianBlur stdDeviation="6"/>
<feColorMatrix type="matrix" values="0 0 0 0 0.690196 0 0 0 0 0.658824 0 0 0 0 0.839216 0 0 0 0.1 0"/>
<feBlend mode="normal" in2="effect1_dropShadow_242_3054" result="effect2_dropShadow_242_3054"/>
<feColorMatrix in="SourceAlpha" type="matrix" values="0 0 0 0 0 0 0 0 0 0 0 0 0 0 0 0 0 0 127 0" result="hardAlpha"/>
<feOffset dx="-20" dy="10"/>
<feGaussianBlur stdDeviation="11.5"/>
<feColorMatrix type="matrix" values="0 0 0 0 0.690196 0 0 0 0 0.658824 0 0 0 0 0.839216 0 0 0 0.09 0"/>
<feBlend mode="normal" in2="effect2_dropShadow_242_3054" result="effect3_dropShadow_242_3054"/>
<feColorMatrix in="SourceAlpha" type="matrix" values="0 0 0 0 0 0 0 0 0 0 0 0 0 0 0 0 0 0 127 0" result="hardAlpha"/>
<feOffset dx="-46" dy="21"/>
<feGaussianBlur stdDeviation="15.5"/>
<feColorMatrix type="matrix" values="0 0 0 0 0.690196 0 0 0 0 0.658824 0 0 0 0 0.839216 0 0 0 0.05 0"/>
<feBlend mode="normal" in2="effect3_dropShadow_242_3054" result="effect4_dropShadow_242_3054"/>
<feColorMatrix in="SourceAlpha" type="matrix" values="0 0 0 0 0 0 0 0 0 0 0 0 0 0 0 0 0 0 127 0" result="hardAlpha"/>
<feOffset dx="-82" dy="38"/>
<feGaussianBlur stdDeviation="18"/>
<feColorMatrix type="matrix" values="0 0 0 0 0.690196 0 0 0 0 0.658824 0 0 0 0 0.839216 0 0 0 0.01 0"/>
<feBlend mode="normal" in2="effect4_dropShadow_242_3054" result="effect5_dropShadow_242_3054"/>
<feBlend mode="normal" in="SourceGraphic" in2="effect5_dropShadow_242_3054" result="shape"/>
</filter>
</defs>
</svg>
