<svg width="156" height="389" viewBox="0 0 156 389" fill="none" xmlns="http://www.w3.org/2000/svg">
<path d="M4.60971 339.825C0.303592 358.811 12.2038 377.693 31.1897 381.999L39.4791 383.879C58.465 388.185 77.3468 376.285 81.653 357.299C85.9591 338.313 74.0588 319.431 55.073 315.125L46.7835 313.245C27.7977 308.939 8.91583 320.839 4.60971 339.825ZM26.6181 242.79C21.7928 264.065 35.1278 285.223 56.4027 290.048C77.6776 294.874 98.836 281.539 103.661 260.264L150.941 51.8081C155.766 30.5332 142.431 9.37481 121.156 4.54951C99.881 -0.27579 78.7226 13.0592 73.8973 34.3341L26.6181 242.79Z" stroke="url(#paint0_linear_75_4604)" stroke-width="7"/>
<defs>
<linearGradient id="paint0_linear_75_4604" x1="164.5" y1="-209" x2="36.1086" y2="379.526" gradientUnits="userSpaceOnUse">
<stop stop-color="white"/>
<stop offset="1" stop-color="white" stop-opacity="0"/>
</linearGradient>
</defs>
</svg>
