<svg width="141" height="90" viewBox="0 0 141 90" fill="none" xmlns="http://www.w3.org/2000/svg">
<rect x="14.6918" y="-0.837117" width="132" height="60" rx="13.5" transform="rotate(15 14.6918 -0.837117)" fill="white"/>
<circle cx="38.8028" cy="36.6817" r="7.5" transform="rotate(15 38.8028 36.6817)" fill="#DB0000"/>
<path d="M55.4811 53.0565L61.2786 31.4197L64.3078 32.2314L58.5102 53.8681L55.4811 53.0565ZM57.7993 53.6776L58.5447 50.8958L69.3012 53.778L68.5558 56.5599L57.7993 53.6776ZM70.0523 56.9608L74.2552 41.5226L77.1607 42.3011L72.9887 57.7476L70.0523 56.9608ZM76.555 38.6271C76.081 38.5001 75.7158 38.2146 75.4594 37.7704C75.2085 37.3056 75.1465 36.8362 75.2735 36.3623C75.406 35.8677 75.6916 35.5025 76.1303 35.2667C76.5744 35.0103 77.0335 34.9455 77.5074 35.0725C78.002 35.205 78.3672 35.4906 78.603 35.9293C78.865 36.3529 78.9297 36.8119 78.7972 37.3065C78.6702 37.7804 78.3819 38.1559 77.9322 38.433C77.5086 38.6949 77.0495 38.7597 76.555 38.6271ZM81.0325 59.903L91.3555 46.1046L94.4156 46.9245L83.8143 60.6484L81.0325 59.903ZM80.847 59.8533L78.5589 42.6757L81.5571 43.4791L83.598 60.5904L80.847 59.8533ZM97.7967 64.7925C96.2924 64.3894 95.0544 63.6933 94.0827 62.704C93.1164 61.6942 92.4665 60.4931 92.1329 59.1006C91.7992 57.7081 91.845 56.2186 92.2701 54.6319C92.6953 53.0452 93.4005 51.7323 94.3856 50.6932C95.3708 49.6541 96.5315 48.9491 97.8676 48.5783C99.2299 48.1924 100.663 48.201 102.167 48.6041C103.569 48.9796 104.708 49.6715 105.587 50.6798C106.491 51.6731 107.065 52.9092 107.31 54.3881C107.58 55.8519 107.478 57.4699 107.003 59.2421L104.067 58.4553C104.441 57.142 104.574 55.9851 104.466 54.9845C104.38 53.9895 104.067 53.177 103.529 52.5469C103.018 51.9018 102.308 51.4578 101.402 51.2149C100.433 50.9553 99.5379 50.9584 98.7158 51.224C97.8992 51.469 97.1847 51.9512 96.5724 52.6705C95.9861 53.3748 95.5356 54.3142 95.2209 55.4888C94.9283 56.5809 94.8906 57.5868 95.108 58.5064C95.331 59.4054 95.7526 60.1809 96.373 60.8331C96.9988 61.4646 97.7857 61.9073 98.7336 62.1613C99.7433 62.4319 100.641 62.4185 101.428 62.1212C102.235 61.8295 102.933 61.3652 103.524 60.7282L105.828 62.6377C105.201 63.3309 104.474 63.8983 103.649 64.3398C102.83 64.7607 101.922 65.0145 100.927 65.1013C99.953 65.1936 98.9094 65.0906 97.7967 64.7925ZM94.0209 55.7636L94.6978 53.3609L106.011 56.3922L105.365 58.8031L94.0209 55.7636Z" fill="black"/>
<rect x="14.6918" y="-0.837117" width="132" height="60" rx="13.5" transform="rotate(15 14.6918 -0.837117)" stroke="black" stroke-width="3"/>
</svg>
