<svg width="90" height="90" viewBox="0 0 90 90" fill="none" xmlns="http://www.w3.org/2000/svg">
<g clip-path="url(#clip0_128_3306)">
<rect x="20.7969" y="0.208984" width="72" height="72" rx="16" transform="rotate(16.6153 20.7969 0.208984)" fill="white"/>
<path d="M58.599 30.4822C55.1301 29.4471 51.5221 30.2071 48.8144 32.2168C47.6508 29.0519 45.0494 26.4389 41.5805 25.4038C35.6969 23.6481 29.4951 27.0154 27.728 32.9373C27.0474 35.2179 26.7825 37.4347 26.8316 39.5783C27.0002 50.0643 34.6236 58.5797 38.7734 61.5295C39.3564 61.9539 40.4296 62.2742 41.1498 62.2386C46.2375 62.0454 57.2808 59.1001 63.1683 50.4213C64.3841 48.6552 65.3773 46.6557 66.0578 44.3751C67.8249 38.4531 64.4826 32.2379 58.599 30.4822Z" fill="#5E48DB"/>
</g>
<rect x="19.7884" y="-1.6573" width="75" height="75" rx="17.5" transform="rotate(16.6153 19.7884 -1.6573)" stroke="black" stroke-width="3"/>
<defs>
<clipPath id="clip0_128_3306">
<rect x="20.7969" y="0.208984" width="72" height="72" rx="16" transform="rotate(16.6153 20.7969 0.208984)" fill="white"/>
</clipPath>
</defs>
</svg>
