<svg width="122" height="32" viewBox="0 0 122 32" fill="none" xmlns="http://www.w3.org/2000/svg">
<g clip-path="url(#clip0_5459_1033)">
<path fill-rule="evenodd" clip-rule="evenodd" d="M3.24122 12.4621C3.24122 6.13178 8.41478 1 14.7967 1H18.9323C25.3143 1 30.4878 6.13178 30.4878 12.4621V13.0762C30.4878 20.1591 24.0761 25.5468 17.0327 24.3824L16.6856 24.325C14.2057 23.9151 11.6739 24.6634 9.82463 26.3529L4.77954 30.9622L0 25.8149L3.39506 22.713L3.24122 20.0426V12.4621ZM10.2961 18.0732V12.4621C10.2961 9.99663 12.3111 7.99794 14.7967 7.99794H18.9323C21.4179 7.99794 23.4329 9.99663 23.4329 12.4621V13.0762C23.4329 15.8349 20.9357 17.9332 18.1924 17.4796L17.8455 17.4223C15.281 16.9984 12.6868 17.2383 10.2961 18.0732Z" fill="#5E48DB"/>
<path fill-rule="evenodd" clip-rule="evenodd" d="M18.9323 7.99794H16.8645V1H18.9323C25.3143 1 30.4878 6.13178 30.4878 12.4621V13.0762C30.4878 20.1591 24.0761 25.5468 17.0327 24.3824L16.6856 24.325C14.2057 23.9151 11.6739 24.6634 9.82463 26.3529L4.77954 30.9622L0 25.8149L5.0451 21.2056C8.49517 18.0535 13.2188 16.6574 17.8455 17.4223L18.1924 17.4796C20.9357 17.9332 23.4329 15.8349 23.4329 13.0762V12.4621C23.4329 9.99663 21.4179 7.99794 18.9323 7.99794Z" fill="#6E5ADE"/>
<path d="M14.1924 13.0899C14.1924 13.6705 13.7218 14.1412 13.1412 14.1412C12.5606 14.1412 12.0898 13.6705 12.0898 13.0899C12.0898 12.5093 12.5606 12.0386 13.1412 12.0386C13.7218 12.0386 14.1924 12.5093 14.1924 13.0899Z" fill="#EED2FF"/>
<path d="M17.3467 13.0899C17.3467 13.6705 16.8761 14.1412 16.2955 14.1412C15.7149 14.1412 15.2441 13.6705 15.2441 13.0899C15.2441 12.5093 15.7149 12.0386 16.2955 12.0386C16.8761 12.0386 17.3467 12.5093 17.3467 13.0899Z" fill="#8B7BE2"/>
<path d="M19.9756 13.0899C19.9756 13.6705 19.505 14.1412 18.9243 14.1412C18.3437 14.1412 17.873 13.6705 17.873 13.0899C17.873 12.5093 18.3437 12.0386 18.9243 12.0386C19.505 12.0386 19.9756 12.5093 19.9756 13.0899Z" fill="#5E48DB"/>
</g>
<path d="M43.7923 19.576V15.544H48.4963C49.4776 15.544 50.2776 15.224 50.8963 14.584C51.5363 13.944 51.8563 13.1013 51.8563 12.056C51.8563 11.3733 51.6963 10.776 51.3763 10.264C51.0563 9.73067 50.6189 9.31467 50.0643 9.016C49.5096 8.71733 48.8696 8.57867 48.1443 8.6H43.7923V4.6L48.2403 4.568C49.8189 4.54667 51.2163 4.86667 52.4323 5.528C53.6483 6.168 54.5976 7.05333 55.2803 8.184C55.9629 9.29333 56.3043 10.584 56.3043 12.056C56.3043 13.5067 55.9736 14.7973 55.3123 15.928C54.6509 17.0587 53.7443 17.9547 52.5923 18.616C51.4403 19.256 50.1069 19.576 48.5923 19.576H43.7923ZM39.9203 27V4.6H44.3043V27H39.9203ZM58.8495 27V11H63.0735V27H58.8495ZM60.9615 8.408C60.3215 8.408 59.7562 8.17333 59.2655 7.704C58.7749 7.21333 58.5295 6.63733 58.5295 5.976C58.5295 5.31467 58.7749 4.74933 59.2655 4.28C59.7562 3.78933 60.3215 3.544 60.9615 3.544C61.6229 3.544 62.1882 3.78933 62.6575 4.28C63.1482 4.74933 63.3935 5.31467 63.3935 5.976C63.3935 6.63733 63.1482 7.21333 62.6575 7.704C62.1882 8.17333 61.6229 8.408 60.9615 8.408ZM74.6805 27.384C73.0165 27.384 71.5339 27.032 70.2325 26.328C68.9312 25.6027 67.9179 24.6107 67.1925 23.352C66.4672 22.072 66.1045 20.6213 66.1045 19C66.1045 17.3573 66.4672 15.9067 67.1925 14.648C67.9179 13.3893 68.9205 12.408 70.2005 11.704C71.4805 10.9787 72.9525 10.616 74.6165 10.616C76.2165 10.616 77.6779 11.0107 79.0005 11.8C80.3232 12.5893 81.2832 13.7307 81.8805 15.224L77.9125 16.632C77.6139 16.0133 77.1445 15.5227 76.5045 15.16C75.8859 14.776 75.1925 14.584 74.4245 14.584C73.6352 14.584 72.9419 14.776 72.3445 15.16C71.7472 15.5227 71.2779 16.0347 70.9365 16.696C70.5952 17.3573 70.4245 18.1253 70.4245 19C70.4245 19.8747 70.5952 20.6427 70.9365 21.304C71.2779 21.944 71.7579 22.456 72.3765 22.84C72.9952 23.224 73.6992 23.416 74.4885 23.416C75.2565 23.416 75.9499 23.2133 76.5685 22.808C77.2085 22.4027 77.6779 21.8693 77.9765 21.208L81.9765 22.616C81.3579 24.1307 80.3872 25.304 79.0645 26.136C77.7632 26.968 76.3019 27.384 74.6805 27.384ZM88.4693 22.936L85.9413 20.024L94.1333 11H99.1573L88.4693 22.936ZM84.4373 27V4.6H88.6613V27H84.4373ZM94.6773 27L89.3653 19.256L92.1173 16.344L99.6373 27H94.6773ZM108.248 27.384C106.477 27.384 105.133 26.9467 104.216 26.072C103.32 25.1973 102.872 23.9493 102.872 22.328V6.008H107.096V21.4C107.096 22.0827 107.245 22.6053 107.544 22.968C107.843 23.3093 108.28 23.48 108.856 23.48C109.069 23.48 109.304 23.4373 109.56 23.352C109.816 23.2453 110.083 23.096 110.36 22.904L111.832 26.072C111.32 26.456 110.744 26.7653 110.104 27C109.485 27.256 108.867 27.384 108.248 27.384ZM100.28 14.584V11H111.096V14.584H100.28ZM116.675 27.48C115.971 27.48 115.363 27.224 114.851 26.712C114.36 26.2 114.115 25.592 114.115 24.888C114.115 24.2053 114.36 23.608 114.851 23.096C115.363 22.584 115.971 22.328 116.675 22.328C117.379 22.328 117.976 22.584 118.467 23.096C118.979 23.608 119.235 24.2053 119.235 24.888C119.235 25.592 118.979 26.2 118.467 26.712C117.976 27.224 117.379 27.48 116.675 27.48Z" fill="#0A0A0A"/>
<defs>
<clipPath id="clip0_5459_1033">
<rect width="30.4878" height="30" fill="white" transform="translate(0 1)"/>
</clipPath>
</defs>
</svg>
